<?xml version="1.0" encoding="UTF-8"?>
<svg id="Layer_11" xmlns="http://www.w3.org/2000/svg" version="1.1" viewBox="0 0 1685.72 2000">
  <!-- Generator: Adobe Illustrator 29.5.1, SVG Export Plug-In . SVG Version: 2.1.0 Build 141)  -->
  <path d="M685.68,1105.41c-2.04,1.04-4.05,2.13-5.74,3.58-19.56,16.77-28.2,18.71-43.24,39.75-2.46,3.45-12.65,15.11-10.6,15.74,2.05.63,4.37-4.96,26.27-25.29,13.61-12.64,14.06-14.18,27.37-27.13,1.77-1.72,5.18-3.86,6.45-6.13.31-.55.04-.8-.52-.51Z"/>
  <path d="M625.59,848.03c-23.24,19.96-16.93,12.87-39.09,34.23-16.71,16.11-56.24,42.23-53.42,44.93,1.54,1.47,29.19-18.87,39.16-25.83,3.34-2.33,7.18-4.48,9.47-7.65,13.38-18.52,4.75-4.03,21.04-19.36,20.02-18.84,31.51-31.02,22.83-26.32Z"/>
  <path d="M958.25,1496.01c13.53-12.28,27-25.62,40.46-37.86,16.64-16.38,22.41-21.72,21.7-21.94-1.11-.35-22.84,20.41-29.23,24.8-5.48,3.94-11.16,8.42-16.38,13.04-2.25,1.99-4.27,4.23-6.05,6.65l-10.96,14.9c-.22.29.18.66.45.41Z"/>
  <path d="M199.19,1732.97c2.05-1.18,2.19-4.76.32-8-1.87-3.24-5.04-4.91-7.09-3.72-2.05,1.18-2.19,4.76-.32,8,1.87,3.24,5.04,4.91,7.09,3.72Z"/>
  <path d="M198.55,1771.91c-2.22,1.28-2.38,5.17-.35,8.69,2.03,3.52,5.48,5.33,7.7,4.04,2.22-1.28,2.38-5.17.35-8.69-2.03-3.52-5.48-5.33-7.7-4.04Z"/>
  <path d="M240.12,1803.85c-1.94,1.12-2.08,4.53-.3,7.6,1.78,3.08,4.79,4.66,6.74,3.54,1.94-1.12,2.08-4.53.3-7.6-1.78-3.08-4.79-4.66-6.74-3.54Z"/>
  <path d="M588.98,1791.57c-2.05,1.18-2.19,4.76-.32,8,1.87,3.24,5.04,4.91,7.09,3.72,2.05-1.18,2.19-4.76.32-8-1.87-3.24-5.04-4.91-7.09-3.72Z"/>
  <path d="M632.32,1856.72c-1.94,1.12-2.08,4.53-.3,7.6,1.78,3.08,4.79,4.66,6.74,3.54,1.94-1.12,2.08-4.53.3-7.6-1.78-3.08-4.79-4.66-6.74-3.54Z"/>
  <path d="M723.71,1826.26c-1.94,1.12-2.08,4.53-.3,7.6,1.78,3.08,4.79,4.66,6.74,3.54,1.94-1.12,2.08-4.53.3-7.6-1.78-3.08-4.79-4.66-6.74-3.54Z"/>
  <path d="M621.12,1894.21c-1.99,1.15-2.12,4.63-.31,7.77,1.82,3.14,4.9,4.76,6.88,3.62s2.12-4.63.31-7.77c-1.82-3.14-4.9-4.76-6.88-3.62Z"/>
  <path d="M388.61,1399.24c-2.36,1.36-2.53,5.5-.37,9.23,2.16,3.74,5.82,5.66,8.18,4.3,2.36-1.36,2.53-5.5.37-9.23-2.16-3.74-5.82-5.66-8.18-4.3Z"/>
  <path d="M378.96,1455.68c-2.27,1.31-2.43,5.29-.35,8.89,2.08,3.6,5.6,5.45,7.87,4.14,2.27-1.31,2.43-5.29.35-8.89-2.08-3.6-5.6-5.45-7.87-4.14Z"/>
  <path d="M533.77,1437.23c-2.05,1.18-2.19,4.76-.32,8,1.87,3.24,5.04,4.91,7.09,3.72,2.05-1.18,2.19-4.76.32-8-1.87-3.24-5.04-4.91-7.09-3.72Z"/>
  <path d="M589.47,1528.98c-1.75,1.01-1.87,4.08-.27,6.85s4.32,4.2,6.07,3.19c1.75-1.01,1.87-4.08.27-6.85-1.6-2.77-4.32-4.2-6.07-3.19Z"/>
  <path d="M544.34,1502.99c-1.94,1.12-2.08,4.53-.3,7.6,1.78,3.08,4.79,4.66,6.74,3.54,1.94-1.12,2.08-4.53.3-7.6-1.78-3.08-4.79-4.66-6.74-3.54Z"/>
  <path d="M169.26,1456.82c2.05-1.18,2.19-4.76.32-8-1.87-3.24-5.04-4.91-7.09-3.72-2.05,1.18-2.19,4.76-.32,8,1.87,3.24,5.04,4.91,7.09,3.72Z"/>
  <path d="M164.65,1481.22c-2.06,1.19-2.2,4.79-.32,8.04,1.88,3.25,5.07,4.93,7.13,3.74s2.2-4.79.32-8.04c-1.88-3.25-5.07-4.93-7.13-3.74Z"/>
  <path d="M222.93,1516.88c-1.94,1.12-2.08,4.53-.3,7.6s4.79,4.66,6.74,3.54c1.94-1.12,2.08-4.53.3-7.6-1.78-3.08-4.79-4.66-6.74-3.54Z"/>
  <path d="M360.78,1725.68c-1.87-3.24-5.04-4.91-7.09-3.72s-2.19,4.76-.32,8c1.87,3.24,5.04,4.91,7.09,3.72,2.05-1.18,2.19-4.76.32-8Z"/>
  <path d="M360.59,1777.03c-2.11,1.22-2.25,4.91-.33,8.24,1.93,3.33,5.19,5.05,7.3,3.84,2.11-1.22,2.25-4.91.33-8.24-1.93-3.33-5.19-5.05-7.3-3.84Z"/>
  <path d="M460.92,1592.36c-2.11,1.22-2.25,4.91-.33,8.24,1.93,3.33,5.19,5.05,7.3,3.84,2.11-1.22,2.25-4.91.33-8.24-1.93-3.33-5.19-5.05-7.3-3.84Z"/>
  <path d="M436.42,1879.5c-2.23,1.29-2.39,5.2-.35,8.74,2.04,3.54,5.51,5.36,7.74,4.07,2.23-1.29,2.39-5.2.35-8.74-2.04-3.54-5.51-5.36-7.74-4.07Z"/>
  <path d="M737.68,1771.36c-2.23,1.29-2.39,5.2-.35,8.74,2.04,3.54,5.51,5.36,7.74,4.07,2.23-1.29,2.39-5.2.35-8.74-2.04-3.54-5.51-5.36-7.74-4.07Z"/>
  <path d="M667.58,1464.87c1.94-1.12,2.08-4.53.3-7.6s-4.79-4.66-6.74-3.54c-1.94,1.12-2.08,4.53-.3,7.6s4.79,4.66,6.74,3.54Z"/>
  <path d="M1662.17,1663.19c-2.59-2.33-21.61-19.42-21.61-19.42,0,0-84.54-70.97-116.64-96.6-30.3-24.19-63.85-11.35-64.17-11.23-8.34,3.09-17.72,6.92-27.8,11.36-17.84-34.24-36.06-69.09-39.58-75.31-4.13-7.32-7.59-19.65-10.64-30.55-1.97-7.04-3.75-13.35-5.64-18.29,15.74-17.22,27.21-29.71,30.56-33.21,12.2-12.66,30.9-37.27,17.56-32.78-3.09,1.04-5.84,2.92-8.07,5.3-7.4,7.87-24.23,25.76-46.01,48.89-13.87-24.7-60.95-106.3-124.23-210.98-32.71-54.1-66.54-107.43-102.08-157.8,3.63-3.42,7.27-6.83,10.87-10.28,13.2-12.62,26.08-25.58,39.32-38.16,7.67-7.29,10.3-9.09,17.75-16.58,1.36-1.36,13.24-13.83,17.7-20.85,1.4-2.2-.43-5.03-3.02-4.7-11.23,1.43-30.39,16.16-34.32,19.64-17.52,15.55-35.29,30.82-52.67,46.53-2.66,2.4-5.2,4.93-7.71,7.49-18.81-26.01-38.11-51.14-57.97-75.08,7.88-7.7,15.93-15.25,23.78-22.98,12.08-11.89,16.06-20.2,27.93-32.29,3.18-3.24,14.38-13.59,19.94-22,1.94-2.94-1.12-6.64-4.36-5.24-11.83,5.13-28.02,20.62-34.47,27.24-13.8,14.15-28.76,27.5-42.27,41.94-.31.33-.62.66-.93.99-53.88-63.16-111.95-117.34-175.82-156.45.89-2.16,1.74-4.23,2.46-6.03.06-.14.11-.27.16-.41.06-.15.12-.31.18-.46.45-1.14.83-2.13,1.11-2.9,5.76-15.78,9.17-42.69,8.9-61.37-.07-4.69-.25-12.47-1.96-22.38-2.65-15.36-8.97-35.82-24.3-57.8-23.08-33.09-66.42-61.48-112.17-76.56-3.59-1.18-7.34-2.29-11.26-3.34-14.25-3.82-30.89-6.82-51.32-9.28-.24-.03-.47-.06-.71-.09-5.03-.6-10.12-1.14-15.21-1.65-9.28-.93-18.59-1.76-27.7-2.56h-.15s-.19-.03-.19-.03c-1.45-.12-2.88-.25-4.32-.37-1.19-.11-2.37-.21-3.55-.32-1.16-.1-2.32-.21-3.47-.31.04-.1.1-.21.15-.32.39-.8,1.07-1.96,2.25-3.52.26-.34.53-.7.85-1.08,11.91-14.68,51.35-58.91,70.34-102.55,1.44-3.31,2.68-6.87,4.08-10.55.29-.76.58-1.52.88-2.29.56-1.41,1.12-2.83,1.73-4.36.81-2.05,1.62-4.16,2.43-6.3,3.28-8.67,6.45-18.04,8.83-28.41.62-1.36,1.22-2.72,1.8-4.09.01-.03.03-.06.04-.09,11.33-26.43,16.04-54.45,17.88-70.74.71-6.24,1-10.77,1.07-12.81.43-11.63,1.19-21.6,1.19-31.46,0-.03,0-.06,0-.1,0-.06,0-.12,0-.18,0-4.93-.21-9.84-.75-14.92-1.5-14.3-5.63-29.95-15.48-51.32-1.83-3.97-3.92-7.75-6.22-11.33-10.46-16.29-25.27-28.52-39.67-37.01-7.75-4.57-15.38-8.05-22.16-10.49-7.5-2.7-27.71-10.16-50.14-20.94-19.89-9.57-41.53-21.74-57.58-35.52-4.19-3.6-8-7.31-11.3-11.11,0-.02-.06-.15-.15-.42,0,0,0,0,0,0,0,0,0-.02,0-.03-.2-.68-.53-2.23-.52-5.18.01-2.28.23-5.38.88-9.61,1.12-7.31,3.97-14.17,9.51-23.32.29-.48.56-.95.87-1.44.44-.71.89-1.41,1.34-2.11.73-1.13,1.47-2.23,2.2-3.29,3.38-4.9,6.62-8.96,8.11-10.79,1.03-1.26,1.42-2.84,1.07-4.32-.18-.77-.52-1.45-.98-2.03-.22-.28-.48-.52-.75-.75-.71-.58-1.58-.97-2.54-1.09-.46-.05-.91-.04-1.37.03-1.55.24-4.43.77-7.95,1.74-6.71,1.85-15.8,5.34-22.76,11.72-4.02,3.68-7.24,7.4-9.77,10.74-5.06,6.69-7.33,11.86-7.47,12.18-.07.17-.11.34-.14.52,0,.02-.01.04-.02.05-.03.19-.04.39-.02.58-.01.08-.01.17-.03.26-.4,8.28-.91,41.3,13.99,68.6,5.55,10.16,13.21,19.54,23.84,26.54,19.18,12.64,29.08,17.18,39.2,21.39,1.11.46,2.22.92,3.35,1.39,6.6,2.72,13.73,5.65,24.05,10.86,5.68,2.87,12.32,6.43,20.37,11.03,1.94,1.11,3.94,2.26,6.05,3.49,11.89,6.94,21.74,13.71,29.9,20.32,26.08,21.14,34.74,40.7,36.37,59.48.07.79.12,1.59.17,2.38.36,6.37.04,12.6-.77,18.67-.07.54-.12,1.09-.2,1.62-.06.37-.13.73-.19,1.1-7.23,45.44-42.46,80.35-45.06,83.71-20.9,27.02-47.99,51.4-47.99,51.4-12.04,11.96-20.48,18.53-29.24,26.28-3.67,3.24-7.4,6.68-11.47,10.82-.64.65-1.35,1.34-2.11,2.08-2.13,2.03-4.73,4.37-7.65,6.98l-2.21,1.98-.63.56c-6.35,5.72-12.81,11.77-18.14,17.78-8.15,9.21-13.61,18.35-11.82,26.2.02.15.06.3.1.43,0,0,0,0,0,0,.16.52.34,1.1.52,1.74,1.89,6.76,4.7,20.23,9.94,35.3,9.8,28.14,28.11,61.86,64.95,67.84,2.64.43,5.46.63,8.44.76,1.95.09,3.96.15,6.09.19,2.71.06,7-.03,12.51-.11,14.64-.21,37.92-.34,63.21,2.67,6.38.76,15.79,2.02,26.94,4.71.01,0,.02,0,.03,0,.26.06.52.13.78.19,24.47,6.01,57.04,18.88,84.27,48.23,1.11,1.2,3.59,4.71,6.01,9.71,4.82,9.94,9.43,25.78,2.72,41.11-.91,2.08-2.02,4.16-3.38,6.21-1.05,1.58-2.13,3.2-3.25,4.85-.13.19-.26.38-.39.57-.5.74-1.01,1.49-1.52,2.25-.61.9-1.23,1.81-1.86,2.73-.27.4-.55.8-.83,1.21-.51.75-1.03,1.49-1.55,2.25-.14.2-.28.4-.42.61-38.01-15.39-78.01-25.42-120.26-29.04-.18-.03-.35-.03-.53-.03-2.37-.03-4.52,1.19-5.74,3.23-1.22,2.03-1.28,4.51-.13,6.59l57.06,105c-2.42,2.72-4.94,5.73-7.38,9.02-.11.14-.21.28-.32.43-.27.37-.55.75-.82,1.13-.13.18-.25.36-.38.54-.84,1.18-1.66,2.4-2.46,3.65-.17.26-.33.52-.5.78-.21.34-.42.68-.63,1.02-.17.28-.33.55-.5.83-.2.34-.4.68-.6,1.03-.17.3-.34.6-.51.91-.32.57-.64,1.15-.95,1.74-.17.32-.34.64-.51.96-.18.35-.35.7-.53,1.06-.15.31-.3.61-.45.92-.17.36-.34.72-.51,1.09-.14.31-.28.63-.42.94-.16.37-.32.73-.48,1.1-.25.6-.5,1.21-.73,1.83-.14.37-.28.75-.41,1.13-.12.32-.23.64-.34.96-.13.39-.26.78-.39,1.18-.1.32-.2.64-.3.96-.12.4-.24.8-.36,1.2-.09.32-.17.65-.26.98-.19.71-.36,1.43-.52,2.15-.07.33-.15.67-.22,1-.08.41-.16.83-.23,1.25-.06.33-.12.67-.17,1.01-.07.42-.13.84-.19,1.26-.05.34-.09.69-.13,1.03-.05.42-.1.84-.14,1.27-.06.68-.11,1.37-.15,2.06-.02.41-.03.83-.04,1.25,0,.37-.02.74-.02,1.12,0,.42,0,.85.01,1.27,0,.38.02.76.04,1.15.02.42.04.84.07,1.26.03.44.07.89.12,1.33.03.33.05.65.09.98.03.22,1.11,31.05,13.57,63.04,3.76,9.64,8.55,19.39,14.65,28.43.71,1.06,1.48,2.12,2.27,3.17.21.29.44.58.66.86.59.77,1.19,1.54,1.81,2.3.28.35.57.69.86,1.04.63.75,1.27,1.5,1.93,2.25.28.31.54.63.83.94.93,1.03,1.88,2.06,2.87,3.09.16.17.34.34.51.51.84.86,1.7,1.72,2.58,2.58.39.39.8.77,1.2,1.15.69.65,1.38,1.31,2.09,1.96.45.41.9.82,1.35,1.24.73.66,1.47,1.31,2.22,1.96.43.38.86.76,1.3,1.13,1.14.97,2.29,1.94,3.47,2.9.42.34.86.68,1.28,1.02.83.66,1.66,1.33,2.5,1.98.56.44,1.14.87,1.71,1.31.74.57,1.49,1.13,2.25,1.7.6.45,1.2.89,1.81,1.34.79.58,1.6,1.16,2.41,1.73.57.41,1.14.82,1.71,1.22,1.3.91,2.61,1.82,3.95,2.72.59.4,1.19.79,1.79,1.19.85.56,1.7,1.13,2.56,1.69.68.44,1.36.88,2.05,1.32.81.52,1.62,1.03,2.44,1.54.69.43,1.39.87,2.08,1.3.89.55,1.79,1.09,2.69,1.64.63.38,1.25.76,1.88,1.13,1.44.85,2.89,1.7,4.36,2.54.65.37,1.31.74,1.97,1.11.93.53,1.86,1.05,2.8,1.57.72.4,1.44.79,2.16,1.18.91.5,1.83.99,2.75,1.49.7.38,1.4.75,2.11,1.12,1.08.57,2.17,1.13,3.26,1.69.54.28,1.08.56,1.63.84,1.57.8,3.15,1.59,4.73,2.36.63.31,1.26.61,1.89.92,1.05.51,2.1,1.02,3.16,1.52.68.32,1.37.65,2.05.97,1.05.49,2.11.98,3.16,1.46.64.29,1.28.59,1.92.88,1.36.61,2.72,1.22,4.08,1.81.33.14.66.29.98.44,1.66.72,3.33,1.43,5,2.13.56.23,1.12.46,1.68.69,1.17.48,2.33.96,3.5,1.43.62.25,1.23.49,1.85.74.45.18.91.37,1.36.54l30.29,55.73c-.46.85-.93,1.68-1.39,2.49-.06.11-.12.21-.18.31-.39.68-.79,1.34-1.18,1.98-.05.08-.1.16-.14.24-.44.72-.88,1.41-1.32,2.07-.12.18-.25.36-.38.54-3.31,4.54-11.25,10.74-13.12,16.3-.97,2.89.48,5.25,2.18,6.66.08.07.17.14.25.21.02.01.03.02.05.04.34.26.7.48,1.03.66.1.05.19.09.28.13.08.04.16.08.24.11.51.21.96.3,1.3.27,6.79-.65,13.78-14.76,15.37-17.36.05-.08,1-1.82,2.47-4.62.5-.95,1.06-2.03,1.66-3.2,1.65-3.19,3.63-7.1,5.63-11.24,4.62-9.57,9.32-20.3,10.18-25.92.6-3.93-.16-6.99-.87-8.84-.28-.71-.01-1.45.53-1.87.25-.19.56-.32.9-.34,2.65-.13,7.33-.15,13.29.68,10.04,1.41,23.73,5.24,37.59,15.06,8.73,6.18,15.02,12.73,19.56,18.99,11.58,16.01,11.63,30.21,11.26,31.87-.27,1.21-.57,2.42-.9,3.64-.02.08-.04.15-.06.23-.33,1.21-.7,2.42-1.09,3.64-.02.07-.05.14-.07.2-.8,2.46-1.71,4.93-2.72,7.41-.04.09-.07.18-.11.27-.5,1.22-1.02,2.44-1.57,3.66-.04.08-.07.16-.11.24-1.1,2.45-2.29,4.89-3.54,7.32-.07.14-.14.27-.21.41-.61,1.17-1.23,2.34-1.87,3.5-.07.13-.14.26-.22.39-.64,1.16-1.29,2.31-1.95,3.45-.02.04-.04.07-.06.11-.66,1.13-1.32,2.25-2,3.37-.13.22-.26.43-.39.65-.65,1.06-1.3,2.12-1.96,3.17-.14.23-.29.45-.43.68-.59.92-1.18,1.83-1.77,2.74-.13.2-.26.4-.39.6-.64.97-1.28,1.93-1.93,2.88-.23.34-.46.67-.68,1-.61.89-1.23,1.78-1.84,2.66-.25.36-.51.72-.76,1.08-.44.62-.88,1.24-1.32,1.85-.38.53-.76,1.05-1.13,1.57-.44.61-.88,1.21-1.33,1.81-.35.48-.71.96-1.06,1.43-.31.41-.62.82-.92,1.23-.62.82-1.23,1.62-1.84,2.42-.17.22-.34.45-.52.67-1.33,1.73-2.65,3.4-3.93,5-3.35,4.18-6.46,7.89-9.16,11-5,5.81-8.49,9.53-9.06,10.25-.39.49-1.65,3.83-1.42,6.42.16,1.65-.04,5.03,2.59,5.7,1.49.27,2.61.31,3.55.09,2.82-.66,4.08-3.64,9.07-9.59.45-.53.91-1.09,1.37-1.65l132.88,244.51,2.1,3.83,4.34-.39s.98-.08,2.7-.07c7.19.07,25.88,1.68,44.33,15.26,2.58,1.9,5.33,2.08,7.7,2.1h.89c3.56.04,10.15.09,22.66,18.26l.16.21c.1.14,10.72,13.92,14.1,18.47,8.71,11.7,17.91,25.07,27.09,39.05-28.86,30.56-52.69,55.76-64.13,67.73-6.45,6.75-12.08,14.29-18.85,22.06-6.49,6.64-12.08,12.83-17.98,18.7-14.38,16.03-30.33,36.51-47.09,49.91-8.85,6.92-16.4,15.55-24.2,23.74-7.68,8.06-14.83,16.62-22.37,24.81-13.98,15.19-28.4,29.98-42.03,45.48-14.27,16.23-26.93,32.18-44.84,44.5-2.98,2.05-6.38,3.96-8.44,6.77-12.74,17.39-32.52,29.37-47.21,44.76-9.85,10.32-19.68,20.67-29.81,30.71-6.57,6.51-8.28,7.65-15.46,13.47-6.42,5.21-7.94,4.31-9.85-4.18-.74-3.26-1.83-6.44-2.56-9.7-5.49-24.51-.5-1.93-5.72-26.5-1.48-6.96-2.99-26.39,3.8-31.9,5.83-8.89,10.87-10.3,17.06-17.5,11.92-13.85,19.88-23.1,32.21-36.56,13.41-14.64,27.78-28.39,41.78-42.48,6.53-5.87,12.97-11.85,19.89-17.22,10.05-7.81,17.54-17.74,26.11-28.07,10.05-11.17,90.32-82.06,97.98-93.71,8.16-12.4,19.07-21.22,29.94-30.62,10.51-9.09,20.08-19.27,29.97-29.06,5.83-5.78,11.49-11.72,17.2-17.63.71-.73,1.37-1.5,2.03-2.27.64-.76-.18-.46-1.17-.38-1.14.1-1.78.99-2.5,1.6-8.79,7.41-15.46,14.89-23.82,22.78-6.57,6.2-13.33,13.23-20.56,18.4-17.27,12.36-32.14,26.21-44.67,43.13-2.8,3.77-76.18,68.02-79.31,71.56-14.23,16.14-27.01,33.56-44.08,47.14-4.5,3.58-8.21,8.15-11.95,12.67-1.75,1.32-3.44,2.72-4.97,4.27-13.36,13.54-26.59,22.71-39.75,36.44-15.53,16.19-27.07,23.7-42.61,39.88-.68.71-1.39,1.4-2.11,2.07-3.29,3.06-8.65,1.3-9.49-3.11-.17-.88-.33-1.76-.49-2.63-4.82-26.87-12.39-66.24-16.68-93.2-.85-5.37.42-17.53,4.13-23.81,6.88-10,18.97-25.08,25.79-32.94,19.16-22.12,72.55-69.06,93.27-89.73,7.05-7.03,142.99-136.41,149.87-143.62.77-.81,1.45-2.39,1.83-3.58-1.33.31-3.6,2.84-4.74,3.47-1.56.86-3.01,2.05-4.28,3.32-11.38,11.34-197.57,182.97-210.1,192.84-23.33,23.75-35.4,32.66-57.6,53.59-.13.12-.26.24-.4.36-1.69,1.52-4.39.65-4.9-1.56l-2.74-2.18c-7.2-31.41-2.92-17.16-11.04-48.33-1.57-6.03.87-14.46,3.85-18.34,4.14-5.4,4.52-4.56,9.2-9.58,5.17-5.54,10.51-10.91,15.97-16.17,9.93-9.58,19.92-20.38,30.27-29.49,14.4-12.7,28.74-26.7,43.06-39.48,16.79-16.23,22.6-21.51,21.9-21.74-1.1-.36-23.03,20.2-29.46,24.53-6.77,4.78-13.84,10.36-20,16.01-22.25,20.41-44.53,39.19-66.49,59.9-2.21,2.08-4.17,4.39-6.09,6.74-1.3,1.58-3.16,2.6-4.81,3.83-1.11-1.86-2.73-3.59-3.25-5.6-2.1-8.1-13.57-55.58-15.63-63.7-4.32-17.02-8.23-34.18-13.56-50.89-1.75-5.5-.65-7.78,3-11.13,9.33-8.55,12.97-12.55,22.31-21.09,5.33-4.87,11.68-8.63,16.93-13.58,12.99-12.25,53.16-59.2,65.91-71.71,12.43-12.19,86.93-75.9,99.42-88.02,14.11-13.69,8.79-12.97-3.45-1.23-7.66,7.34-78.5,64.99-86.37,72.11-20.26,18.34-67.44,70.88-87.8,89.1-11.28,10.09-19.18,12.84-30.56,22.81-5.67,4.97-4.97,4.45-7.61-5.05-6.29-22.67-12.33-45.41-17.84-68.27-2.9-12.01-5.64-24.31-6.11-36.57-.48-12.76,1.54-15.05,14.6-23.26,14.1-8.87,23.83-22.77,35.38-34.59,17.68-18.1,36.24-35.34,54.49-52.89,10.1-9.71,21.25-18.49,30.31-29.08,19.94-23.32,44.8-50.74,66.39-72.47,4.37-3.04,4.88,30.23,7.86,39.87.44,1.42,2.38,1.58,3.04.25.82-1.63.47-3.17.5-4.4.09-3.25.05-39.74-5.99-45.88-5.47-5.57-39.56-15.18-42.53-14.05-1.29.84-2.43,1.37-3.54,2.02-1.01.59-.73,2.13.42,2.32,19.51,3.25,32.17,9.31,29.46,11.83-5.17,4.8-9.49,8.43-14.38,13.28-7.64,7.57-14.85,14.93-22.27,22.73-13.98,14.7-27.64,29.73-42.14,43.9-13.56,13.24-28.17,25.41-42.07,38.32-5.34,4.96-10.17,10.51-14.94,16.04-18.01,20.88-35.96,41.69-59.27,57.22-7.4,4.93-14.32,8.18-23.14,6.02-.44-.11-.9-.1-1.35-.17-38.16-5.46-76.33-10.88-114.48-16.45-2.3-.34-4.42-1.81-6.63-2.76,1.08-2.27,1.6-5.14,3.31-6.72,13.57-12.6,27.44-24.88,41.06-37.43,6.07-5.6,11.94-11.43,17.61-17.44,9.73-10.31,18.98-21.08,28.9-31.2,9.79-9.98,20.51-19.06,30.19-29.14,16.98-17.68,33.4-35.9,50.2-53.76,9.49-10.09,19.2-19.97,28.88-29.89,6.67-6.83,17.68-17.9,24.46-24.61,9.51-9.41,15.99-17.86,25.83-27.39,3.66-3.55,6.84-7.62,9.98-11.65.56-.72,3.05-2.51,4.09-3.89.27-.35-.02-.85-.46-.81-1.12.11-2.14.77-2.79,1.38-14.99,14.08-31.38,26.51-44.57,42.13-12.4,14.69-27.22,26.64-40.11,40.64-13.72,14.9-27.6,29.66-41.75,44.16-10.36,10.61-21.25,20.7-31.93,31-7.86,7.58-15.76,15.12-23.62,22.71-15.07,14.55-27.82,31.34-45.04,43.88-13.29,9.68-25.27,21.17-37.78,31.91-1.27,1.09-2.13,2.63-3.25,3.91-7,8.07-14.39,12.86-26.49,10.65-20.44-3.73-41.27-5.27-61.94-7.73-4.04-.48-3.51-.47-7.57-.79-2.07-.16-5.16-.64-7.26-.52-4.3-1.51-.82-5.29.86-6.87,12.84-12.06,22.33-23.64,35.36-35.49,7.19-6.53,14.75-12.68,21.59-19.55,21.07-21.18,42.35-44.77,63.2-66.18,12.96-13.3,13.33-14.87,25.97-28.47,1.68-1.81,4.98-4.11,6.14-6.45.28-.57,0-.8-.55-.49-1.99,1.15-3.94,2.33-5.55,3.86-18.69,17.74-26.29,24.79-44.87,42.64-9.78,9.39-20.5,17.96-29.26,28.22-20.84,24.39-45.42,44.76-69.09,66.11-5.14,4.63-12.03,7.27-17.43,11.67-6.95,5.66-14.13,7.55-23.1,6.3-51.17-7.14-102.9-10.24-153.55-21.22-2.33-.51-4.5-1.78-6.75-2.69,1.3-1.67,2.33-3.68,3.94-4.95,23.7-18.63,46.04-38.73,66.44-61.01,7.85-8.58,16.08-16.8,24.45-24.87,10.62-10.25,20.35-22,32.4-30.29,19.55-13.45,34.73-31.33,50.42-48.29,18.37-19.85,39.81-36.23,57.99-56.3,14.87-16.42,33.93-29.03,51.01-43.47,3.28-2.77,5.76-6.49,9.06-9.24,7.92-6.6,16.11-12.88,24.19-19.29,3.19-2.53,7.18-4.48,9.47-7.65,13.38-18.52,33.15-30.08,49.44-45.41,20.02-18.84,31.51-31.02,22.83-26.32-23.24,19.96-47.68,38.45-69.83,59.81-16.71,16.11-35.56,30-53.42,44.93-15.08,12.61-30.1,25.28-45.11,37.97-1.3,1.1-2.3,2.55-3.49,3.78-10.6,10.97-20.29,22.69-32.5,32.24-11.65,9.11-22.22,19.79-32.25,30.71-10.63,11.58-20.58,23.59-33.43,33.07-11.05,8.15-21.01,17.8-31.37,26.88-7.64,6.7-15.78,12.97-22.62,20.42-21.8,23.71-45.65,45.13-70.68,65.32-4.38,3.53-7.8,8.25-12.19,11.76-3.67,2.94-8.12,6.94-12.21,6.93-10.34-.03-21-.87-30.93-3.57-16.01-4.35-31.85-9.15-48.42-10.97-8.55-.94-17.12-1.77-25.59-3.18-1.63-.27-3.16-1.16-4.67-2.12-1.61-1.02-1.95-3.23-.71-4.68.74-.86,1.52-1.69,2.37-2.42,5.15-4.36,10.88-8.11,15.59-12.88,11.81-11.96,22.67-24.89,34.85-36.43,16.06-15.21,33.03-29.46,49.58-44.15,15.88-14.09,132.41-117.45,148.19-131.65,2.18-1.97,3.9-4.48,5.65-6.88.23-.32.41-.67.56-1.05.48-1.18.86-1.14-.4-.91-.49.09-.93.23-1.26.51-14.05,11.72-130.14,111.51-144.05,123.4-9.44,8.07-18.93,16.11-28.03,24.56-15.07,13.99-29.31,28.92-44.89,42.29-17.15,14.73-35.54,27.99-53.1,42.26-4.24,3.44-8.12,4.72-13.41,3.63-12.95-2.68-25.96-5.13-38.99-7.4-7.74-1.35-15.84-.89-22.85-5.45-1.98-1.29-4.38-1.94-6.59-2.88,1.43-2.55,2.28-5.79,4.37-7.56,32.09-27.13,64.34-54.08,96.57-81.05,2.43-2.03,5.1-3.79,7.44-5.91,19.91-18.05,39.76-36.18,59.67-54.22,2.68-2.42,5.78-4.37,8.49-6.76,15.9-14.07,31.73-28.2,47.6-42.3.88-.78,1.79-1.52,2.74-2.2,10.26-7.31,21.28-13.77,30.73-22.01,16.85-14.69,32.86-30.33,49.08-45.74,6.92-6.57,13.34-13.65,20.2-20.28,19.82-19.11,39.68-38.18,59.66-57.12,7.37-6.99,15.07-13.64,22.7-20.35,17.97-15.82,35.94-31.63,53.98-47.37,11.06-9.65,22.83-18.57,33.25-28.86,19.8-19.56,39.91-38.7,61.89-55.82,2.49-1.94,5.16-3.72,7.4-5.93,11.43-11.29,20.11-23.57,31.88-34.49,21.03-19.5,42.39-38.65,63.86-57.66,20.3-17.96,37.84-33.33,33.74-39.48-3.7-1.88-17.12,6.55-31.71,19.04-6.69,5.73-44.14,41.85-63.71,59.61-8.19,7.44-16.64,14.59-24.82,22.04-18.87,17.19-38.81,32.9-57.66,50.1-2.67,2.43-5.85,4.31-8.48,6.78-15.32,14.38-29.27,30.33-44.66,44.63-4.63,4.3-10.19,7.58-14.83,11.87-16.1,14.86-33.01,28.77-49.19,43.55-10.84,9.9-22.26,19.15-33.31,28.81-6.97,6.09-14.55,11.73-20.47,18.74-26.84,31.78-57.6,59.79-89.25,86.21-36.78,30.69-73.2,61.82-110.05,92.42-1.39,1.16-2.96,2.12-4.24,3.38-22.06,21.75-44.62,42.91-69.18,61.9-8.38,6.48-15.84,14.13-23.88,21.05-13.18,11.35-26.43,22.63-39.8,33.75-7.59,6.31-15.91,11.81-23.09,18.54-4.1,3.85-14.77,10.21-10.99,17.5,4.61,8.89,11.57,24.5,15.12,33.94,1.12,2.97,2.24,5.95,3.17,8.98,6.46,20.96,17.12,40.27,21.65,62.05,4.76,22.9,11.07,45.51,17.46,68.03,5.02,17.7,11.31,35.03,16.78,52.61,10.56,33.94,20.87,67.96,31.42,101.9,5.96,19.17,12.56,38.15,18.17,57.43,7.36,25.29,13.62,50.89,21.1,76.14,7.61,25.69,14.46,51.62,25.45,76.25,7.35,16.47,13.01,33.68,19.81,50.4,1.1,2.7,9.66,11.45,12.21,12.02,13.78,3.08,27.74,5.4,41.65,7.92,2.22.4,4.57.27,6.72.87,17.01,4.68,33.82,10.19,51.01,14.01,14.65,3.26,29.72,3.78,44.46,7.83,17.46,4.8,35.8,6.35,53.7,9.64,6.87,1.26,34.93,6.39,40.84,7.42,20.6,3.6,41.56,5.6,61.81,10.57,17.86,4.38,72.14,15.71,80.69,17.47,8.98,1.85,17.86,4.3,26.89,5.84,31.32,5.34,63.15,6.25,94.37,13.53,29.08,6.78,59.17,9.16,88.74,13.96,8.45,1.37,15.06,2.16,23.28,4.72,3.98,1.24,9.43-2.04,11.22-3.56,2.83-2.41,9.16-7.03,12.39-10.46,12.4-13.19,24.65-26.52,37.33-39.43,9.5-9.67,19.55-18.79,29.38-28.12,19.5-18.51,37.54-38.59,59.56-54.37,3.8-2.73,6.74-6.69,9.98-10.16,22.92-24.53,45.58-49.3,68.8-73.54,15.64-16.32,32.59-31.4,48-47.93,18.94-20.32,36.77-41.68,55.31-62.38,12.27-13.71,25.02-26.99,37.53-40.48,12.18-13.13,24.51-26.12,36.72-39.22,1.92-2.06,4.23-4.56,6.87-7.41,13.9,21.76,27.4,44.17,38.71,63.53-35.02,30.35-58.05,62.42-52.38,90.88,5.86,29.44,46.6,151.62,47.42,153.24,1.22,2.4,9.63,29.77,17.6,26.24,3.53-1.56-3.4-29.53-4.53-34.48-6.58-28.6-29.48-108.31-35.81-134-7.51-30.47-.06-46.25,9.61-58.4,16.3-20.48,62.13-54.86,192.97-122.58,23.46-12.14,47.37-16.07,80.81,8.93,29.44,22.01,116.09,96.84,116.52,97.22,7.79,6.78,31.43,30.95,39.54,25.49,11.97-8.06.52-18.3-18.66-35.53ZM553.95,1387.61c1.89-3.66,10.44-1.39,17.64-.07,9.31,1.71,101.16,13.86,110.6,14.13,7.34.21,9.96,3.96,10.23,10.08,1.44,32.74,56.98,244.41,67.92,298.22.41,2.03,7.64,20.9,4.88,21.72-11.39,3.35-23.34-32.56-33.84-46.72-9.2-12.41-35.94-32.76-49.42-57.16-25.53-46.21-38.83-101.92-43.57-110.41-3.18-5.7-6.99-11.05-10.51-16.55-7.51-11.16-64.64-92.04-70.8-101.26-4.57-6.85-4.06-10.2-3.14-11.98ZM324.47,1891.75c-.27-.08-.54-.15-.81-.2-12.09-2.42-34.32-5.87-46-9.55-12.86-4.06-26.53-4.02-39.12-9.51-5.96-2.6-13.32-2.24-20.09-2.63-7.56-.43-11.5-3.45-13.84-11.24-4.57-15.23-10.56-30.05-16.25-44.93-8.69-22.73-15.12-39.22-18.77-48.41l-13.06-46.39c-7.63-22.97-12.67-46.79-19.72-69.98-8.28-27.21-50.98-159.16-59.31-186.36-1.23-4.02,24.53,27.48,26.3,30.27,6.86,10.87,23.1,67.81,32.31,84.46,6.53,11.81,14.44,22.84,21.44,34.39,6.71,11.07,12.97,22.41,19.59,33.54,5.99,10.08,12.34,19.94,18.26,30.05,8.94,15.25,34.7,56.56,42.49,72.39,7.62,15.48,3.63,18.47,14.49,31.06,9.45,10.96,18.25,22.54,26.63,34.35,8.87,12.5,38.72,61.49,47.04,74.38.34.52.61,1.08.86,1.65.66,1.56-.82,3.12-2.44,2.65ZM487.93,1921.07c-.46-.51-1.74-.23-2.64-.38-19.74-3.26-39.45-6.77-59.24-9.67-9.04-1.33-27.83-5.58-28.08-5.62-11.84-1.86-10.83-1.98-22.64-4.04-2.56-.45-7.44-1.16-10.63-1.31-24.65-4.72-24.41-10.2-32.13-21.37-3.98-5.76-30.16-47.93-34.4-53.48-10.86-14.25-29.84-38.38-41.18-52.24-5.04-6.16-8.49-23.75-13.57-30.97-16.24-23.07-25.29-41.04-39.21-64.99-10.6-18.23-41.23-69.5-51.95-87.67-27.22-43.89-19.69-63.23-36.74-94.38-14.87-27.16-35.76-35.63-47.38-64.29-9.38-23.14-3.12-14.06-9.87-38.22-7.34-26.27-3.55-18.49-16.83-42.74l-8.88-27.4c-6.35-11.44-3.59-11.32-6.22-17.14-2.18-6.78,3.7-5.83,5.01-5.25,13.74,6.12,28.2,9.55,43.05,10.22,17.56.8,25.05-.72,32.37,14.81,10.38,22.01,13.81,20.61,22.37,37.91,2.43,4.91,5.54,9.44,9.3,13.43,12.86,13.61,53.71,36.94,57.4,51.46,4.95,15.03,13.48,26.64,26.11,37.17,25.95,21.65,40.22,42.79,52.33,76.17,5.7,15.72-.69,33.87,10.66,46.95,15.55,17.91,18.74,23.27,31.22,43.24,9.21,14.73,44.26,47.26,59.19,57.78,4.08,2.87,10.68,20.81,15.26,22.79,17.88,19.37,21.35,26.33,28.66,42.25,10.86,23.64-3.96,35.43,9.56,57.55,15.03,24.59,31.58,47.88,48.55,71.09,7.51,10.26,10.92,23.64,15.46,35.88,1.2,3.22-1.76,2.99-4.93,2.44ZM745.01,1971.08c-2.27.46-4.64.75-6.06-.08-2.22-1.3-4.5-2.51-7.02-3.04-10.82-2.3-22.36-2.21-33.44-3.9-8.15-1.25-16.42-2.88-24.06-5.82-3.67-1.41-21.14-2.16-22.19-2.38-13.4-2.76-.35-.04-13.62-5.49-8.47-3.48-18.71-2.52-28.1-3.95-1.97-.3-13.05-1.31-17.12-2.01-7.3-1.25-14.45-3.33-21.74-4.71-6.16-1.17-12.52-1.39-18.6-2.82-12.16-2.87-24.47-5-36.36-9.33-5.44-1.98-7.73-5.17-9.9-9.47-9.54-18.93-17.88-38.56-31.96-54.81-4.57-5.27-9.58-10.17-14.38-15.25-12.7-18.23-5.99-11.2-17.91-27.27-15.9-21.42-5.91-51.76-19.17-74.45-5.32-9.11-11.25-18.07-18.31-27.59-2.4-3.24-5.15-6.24-8.36-8.66-6.77-5.1-11.65-18.3-16.5-24.35-15.39-19.19-56.37-50.19-67.68-71.95-3.62-6.97-7.95-13.82-13.12-19.71-16.33-18.65-14.03-42.7-23.26-65.52-12-29.68-24.35-48.58-47.9-68.49-12.59-10.65-21.91-21.94-27.02-37.99-8.19-25.7-51.62-39.12-62.58-63.8-5.51-12.41-13.53-19.21-17.95-32.3-1.22-3.6-.12-5.21,3.57-4.43,13.83,2.92,25.87,1.33,39.48,7.3,7.74,3.39,16.96,2.87,25.5,5.71,12.44,4.14,25.81,5.63,38.86,7.72,9.64,1.54,18.35,4.1,26.7,5.95,2.09-.23,6.34.81,8.34,1.13,18.86,3.03,37.59,7.07,56.54,9.2,30.65,3.45,47.67,6.71,78.42,9.24,9.16.76,14.43-2.15,18.07,6.65,7,16.91,19.45,29.78,28.85,45.56,7.02,11.79,10.88,28.59,18.81,39.85,13.3,18.88,8.23,45.4,20.88,64.68,3.64,5.55,6.18,11.74,7.23,18.3,2.48,15.6,11.56,27.93,20,40.06,10.7,15.38,18.04,32.13,25.84,48.87,5.77,12.37,1.08,26.05,9.69,36.21,17.2,20.33,21.62,41.12,34.1,63.99,6.83,12.51,20.71,21.85,28.23,33.96,10.37,16.7,23.31,26.98,34.14,43.37,14.31,21.66,28.91,43.14,43.49,64.63,15.84,23.36,31.77,46.66,47.72,69.94,6.51,9.5,11.75,23.9,11.89,24.11,1,1.48-2.05,3.15-2.05,3.15ZM808.89,1969.99c-.98,2.45-32.03,4.91-37.02,2.84-13.09-5.42-15.65-17.68-23.51-27.29-15.71-21.26-28.96-42.97-45.15-63.86-16.79-21.66-32.94-43.63-46.2-67.76-6.16-11.21-14.9-20.97-22.08-31.64-19.3-28.69-42.15-44.7-54.98-77.22-2.83-7.17-8.11-13.39-12.34-20l-14.28-24.04c0-8.45-3.55-22.78-13.56-40.43-5.06-15.35-13.75-28.56-22.13-41.9-9.6-15.28-18.93-30.25-22.41-48.51-1.46-7.64-6.44-14.84-10.73-21.66-8.65-13.76-1.81-33.49-10-47.5-16.8-28.74-26.27-52.24-40.43-82.61-2.54-5.44.01-5.91,3.1-6.76,2.02-.56,4.45.38,6.7.65,25.61,3.05,56.58,4.96,74.59,6.7,11.08,1.07,17.75,7.38,22.41,14.2,11.72,17.16,81.34,109.81,88.43,121.57,4.73,7.84,17.41,57.76,45.49,111.25,10.56,20.11,41.82,47.25,51.81,67.09,13.07,25.96,33.62,47.64,37.29,54.17,1.05,1.88,6.75,16.8,8.21,18.38,5.56,6.01,9.88,65.71,10.96,69.75,1.04,8.13,2.67,15.46,4.42,27.39,5.54,30.07,13.88,57.09,20.3,86.99.87,4.07,2.09,17.77,1.11,20.21ZM871.15,789.64c-.22.94-.45,1.89-.7,2.85h0s0,0,0,0h.02c-.2.34-1.41,2.37-3.53,5.64,0,0,0,.01-.01.02-.36.56-.75,1.15-1.16,1.78-.12.18-.23.36-.36.54-.19.29-.39.59-.59.89-.28.43-.58.86-.88,1.31-.18.27-.38.56-.57.84-.21.32-.43.64-.66.97-.22.33-.45.65-.68.99-.33.48-.67.97-1.01,1.46-.2.29-.41.59-.62.89-.32.45-.64.91-.97,1.38-.26.36-.52.73-.78,1.1-.34.48-.69.97-1.05,1.47-.21.29-.42.59-.64.89-.48.66-.97,1.34-1.47,2.02-.19.27-.4.54-.59.81-.41.55-.82,1.11-1.24,1.68-.19.26-.38.51-.58.77-.57.75-1.15,1.52-1.74,2.29-.18.24-.37.49-.56.73-.36.47-.72.94-1.09,1.41-.59.76-1.19,1.53-1.8,2.3-.74.96-1.52,1.92-2.3,2.9-.25.32-.51.63-.76.95-.86,1.06-1.74,2.14-2.64,3.22-.43.52-.87,1.05-1.32,1.59l-.57.69-.58.69c-3.3,3.93-6.51,7.77-9.6,11.53-8.6,10.45-16.16,20.25-21.5,29.53-4.02,6.99-6.79,13.68-7.76,20.14-.03.17-.04.33-.06.5-.17,1.16-.3,2.3-.42,3.42-.03.29-.06.59-.09.88-.02.17-.04.34-.05.51-.08.98-.12,1.94-.15,2.89,0,.22-.03.45-.03.66,0,.03,0,.07,0,.1-.03,1.27-.02,2.51.03,3.73.01.35.05.67.07,1.01.05.89.12,1.76.22,2.61.05.43.11.85.17,1.27.1.73.22,1.46.36,2.16.09.44.18.87.28,1.29.15.66.33,1.31.51,1.94.12.41.24.83.37,1.23.21.64.45,1.25.7,1.85.14.35.27.71.43,1.05.36.81.76,1.58,1.19,2.33.05.09.1.2.15.3.1.17.22.36.34.54.06.09.1.17.17.27,0,0,.44.63.57.82l.23.3s.06.08.1.12c.03.04.06.08.11.14.21.27.47.61.47.61.12.14.26.3.42.5.05.05.08.1.14.16,0,0,.6.7.86,1,0,0,.05.05.11.13.14.17.39.44.61.68.08.08.15.17.21.23l.88.94.94.98c-.39-.14-.79-.29-1.19-.43-.54-.2-1.07-.39-1.62-.59-2.45-.9-4.87-1.79-7.26-2.68-.68-.25-1.35-.5-2.03-.75-.31-.12-.63-.23-.94-.35-1.03-.39-2.06-.77-3.08-1.16-.03-.01-.06-.02-.09-.03-3.23-1.22-6.4-2.44-9.49-3.67-.19-.08-.38-.15-.58-.23-.8-.32-1.6-.64-2.39-.96-.31-.13-.61-.25-.92-.38-.67-.27-1.34-.55-2-.83-.36-.15-.72-.3-1.08-.46-.6-.25-1.19-.5-1.78-.76-.39-.17-.78-.34-1.17-.51-.54-.24-1.08-.47-1.61-.71-.42-.19-.84-.37-1.25-.56-.49-.22-.98-.44-1.46-.67-.44-.2-.87-.4-1.3-.6-.46-.21-.91-.43-1.36-.64-.44-.21-.89-.43-1.32-.64-.42-.21-.84-.41-1.25-.62-.45-.23-.9-.45-1.34-.68-.39-.2-.77-.4-1.15-.6-.46-.24-.92-.48-1.37-.72-.35-.19-.69-.38-1.03-.56-.47-.26-.94-.51-1.4-.77-.3-.17-.59-.34-.88-.51-.49-.28-.98-.57-1.46-.85-.2-.12-.38-.24-.58-.36-1.95-1.19-3.81-2.41-5.56-3.67-.05-.04-.11-.07-.16-.11-.48-.35-.95-.71-1.42-1.07-.18-.14-.36-.27-.54-.41-.43-.33-.84-.67-1.25-1.01-.2-.17-.41-.33-.61-.5-.39-.33-.77-.66-1.14-1-.21-.18-.42-.37-.62-.55-.36-.33-.71-.66-1.05-1-.2-.2-.41-.39-.6-.59-.33-.33-.65-.67-.97-1.01-.19-.21-.39-.41-.57-.62-.31-.34-.6-.68-.89-1.03-.18-.22-.36-.43-.54-.65-.28-.35-.55-.69-.82-1.05-.17-.22-.33-.45-.49-.68-.26-.35-.51-.71-.75-1.07-.15-.23-.3-.47-.45-.7-.23-.36-.46-.73-.67-1.1-.14-.24-.27-.48-.4-.72-.21-.38-.41-.75-.6-1.14-.12-.24-.22-.48-.34-.72-.18-.39-.37-.78-.53-1.19-.1-.23-.18-.47-.27-.7-.16-.42-.33-.84-.47-1.27-.05-.14-.09-.29-.13-.44-.16-.51-.32-1.02-.46-1.54-.09-1-.12-1.99-.14-2.97,0-.22,0-.44,0-.66,0-.86.03-1.72.09-2.58,0-.12.01-.25.02-.37.07-.96.18-1.9.31-2.85.03-.22.07-.43.1-.65.12-.76.26-1.52.41-2.27.04-.21.09-.43.13-.65.2-.9.42-1.8.67-2.68.05-.19.11-.37.17-.56.21-.72.44-1.44.68-2.15.09-.25.17-.51.26-.76.3-.85.62-1.7.96-2.53.04-.1.09-.19.13-.29.31-.75.64-1.5.99-2.24.12-.26.24-.52.37-.78.32-.66.64-1.32.98-1.97.09-.17.17-.33.25-.5.41-.78.84-1.55,1.28-2.31.13-.23.27-.46.4-.68.36-.6.72-1.2,1.08-1.79.12-.19.23-.38.35-.56.48-.75.96-1.49,1.45-2.21.09-.13.18-.26.27-.39.44-.64.89-1.28,1.34-1.9.09-.13.19-.26.28-.39,1.68-2.3,3.4-4.45,5.08-6.43.44-.53.9-1.05,1.34-1.55.44-.51.87-1,1.32-1.48,1.89-2.1,3.67-3.95,5.22-5.54.17-.17.33-.34.49-.5.4-.41.81-.82,1.18-1.2.03-.03.07-.07.09-.09l1-1.02c.15-.15.27-.28.41-.42.83-.84,1.61-1.63,2.27-2.32,16.54-17.19,35.35-41.19,51.13-63.32.24-.34.49-.69.74-1.03l.66-.94c.14-.21.3-.42.44-.63.32-.46.64-.91.96-1.37,1.9-2.7,3.74-5.36,5.53-7.97.28-.41.58-.83.86-1.24,1.81-2.65,3.54-5.23,5.2-7.74.22-.34.44-.67.66-1,.35-.54.71-1.08,1.05-1.61.62-.96,1.24-1.9,1.84-2.83,8.54-13.24,9.08-27.88,7-40.17-.44-2.59-.99-5.09-1.61-7.44.04.05.44.4,1.12,1.05.17.17.36.34.57.55.01.01.02.02.04.04,4.45,4.39,16.56,17.38,24.66,37.03,0,0,0,0,0,0,.47,1.15.93,2.33,1.38,3.52,0,.01.01.03.02.04,1.33,3.6,2.52,7.4,3.5,11.39,0,.01,0,.03,0,.04.32,1.29.61,2.6.88,3.93.02.08.03.16.05.24.26,1.31.5,2.64.72,3.99.01.08.02.16.04.24.65,4.16,1.05,8.49,1.16,12.99,0,.12,0,.23,0,.34.03,1.42.02,2.85-.01,4.3,0,.17,0,.34-.01.51-.04,1.44-.11,2.9-.22,4.37-.02.24-.04.47-.06.71-.05.63-.11,1.27-.17,1.91-.01.13-.02.26-.04.39-.04.43-.09.85-.14,1.28-.05.45-.11.9-.17,1.35-.1.82-.22,1.65-.34,2.48-.08.53-.17,1.07-.26,1.61-.12.69-.24,1.39-.37,2.09-.14.74-.28,1.49-.44,2.24-.12.58-.25,1.17-.38,1.76-.04.16-.07.32-.11.49ZM954.47,994.37c.98.85,1.95,1.72,2.91,2.6.54.5,1.08,1.01,1.61,1.53.84.81,1.67,1.65,2.5,2.49.5.51,1.01,1.02,1.5,1.55,1.16,1.24,2.31,2.5,3.43,3.8.1.11.2.22.3.33,1.16,1.34,2.27,2.69,3.37,4.02.19.24.39.48.58.71,2.17,2.68,4.23,5.35,6.17,8.01.17.23.33.45.49.68,1.93,2.66,3.74,5.3,5.45,7.92.15.23.29.45.44.68,1.69,2.61,3.27,5.21,4.75,7.78.14.24.27.47.4.7.72,1.26,1.42,2.51,2.09,3.75,0,.02.02.03.03.05.68,1.27,1.33,2.53,1.97,3.78.13.26.26.52.39.77.58,1.15,1.14,2.3,1.67,3.44.04.09.09.19.13.28.57,1.21,1.11,2.41,1.64,3.61.13.28.25.57.37.85.45,1.05.89,2.09,1.32,3.12.07.17.14.33.21.5.46,1.14.9,2.28,1.33,3.41.12.32.24.65.36.97.34.93.68,1.85,1,2.76.08.24.17.48.26.72.37,1.07.72,2.13,1.05,3.18.12.37.23.73.34,1.09.25.8.49,1.6.72,2.39.09.32.19.63.28.95.28.99.55,1.96.81,2.93.11.41.21.83.32,1.24.17.67.34,1.34.5,2.01.09.39.19.78.28,1.16.21.9.41,1.79.59,2.67.1.46.19.91.28,1.37.11.55.22,1.1.32,1.65.09.45.17.89.25,1.34.15.82.28,1.62.42,2.42.08.5.16.99.23,1.48.05.31.09.61.14.92.16,1.08.3,2.14.43,3.2.07.54.13,1.07.19,1.61.07.68.14,1.34.21,2,.03.29.06.59.08.87.04.48.08.94.12,1.41.06.72.11,1.43.16,2.13.02.23.03.45.04.68,0,.05,0,.11,0,.16.04.78.07,1.53.11,2.28,0,.18.02.37.02.55.03.42.03.82.04,1.22.03.81.04,1.59.04,2.37.01.78,0,1.53,0,2.28,0,.32,0,.65,0,.96,0,.52-.02,1.01-.04,1.51-.02.61-.04,1.22-.06,1.81,0,.2-.02.4-.03.59-.04.92-.1,1.82-.16,2.69,0,.08-.01.15-.01.23-.02-.05-.04-.1-.06-.15-.09-.23-.18-.46-.28-.69-.07-.17-.14-.32-.21-.48-.24-.58-.47-1.16-.71-1.72-.17-.4-.35-.8-.52-1.2-.17-.39-.33-.78-.5-1.16,0,0,0,0,0,0-.53-1.18-1.06-2.32-1.6-3.44-.08-.17-.16-.34-.24-.51-.03-.06-.06-.12-.09-.19-.06-.12-.12-.24-.18-.36-.24-.49-.49-.98-.73-1.46-.07-.14-.15-.3-.22-.44-.08-.15-.15-.29-.23-.43-.22-.43-.45-.86-.67-1.28-.06-.11-.12-.22-.17-.33-.06-.1-.11-.21-.16-.31-.09-.17-.19-.34-.29-.52-.6-1.1-1.21-2.16-1.82-3.19-.27-.45-.53-.89-.8-1.33-.03-.05-.06-.09-.09-.14-.29-.47-.57-.92-.86-1.37-.07-.11-.14-.22-.21-.33-.66-1.02-1.32-2.01-1.98-2.97-.09-.13-.18-.25-.27-.38-.43-.61-.86-1.2-1.29-1.78-.11-.14-.21-.28-.32-.43-.48-.65-.97-1.28-1.46-1.89-.01-.02-.03-.03-.04-.05,0,0-.01-.02-.02-.03-.22-.28-.45-.56-.67-.83-.08-.1-.17-.2-.24-.3-.04-.04-.07-.08-.1-.12-2.03-2.44-4.06-4.61-6.08-6.53-.09-.09-.19-.17-.28-.26-.38-.35-.75-.7-1.13-1.03-.16-.14-.32-.28-.48-.42-.31-.27-.61-.54-.92-.79-.19-.16-.38-.32-.57-.48-.27-.22-.54-.44-.81-.66-.21-.17-.42-.33-.63-.5-.25-.19-.5-.38-.74-.57-.22-.17-.45-.34-.67-.5-.22-.16-.44-.32-.67-.47-.56-.39-1.11-.77-1.66-1.14-.1-.07-.21-.14-.31-.21-.28-.18-.55-.35-.83-.52-.17-.1-.34-.21-.5-.31-.27-.16-.54-.32-.8-.48-.17-.1-.34-.2-.51-.3-.26-.15-.52-.3-.78-.44-.17-.09-.34-.19-.51-.28-.26-.14-.51-.27-.76-.4-.17-.09-.34-.17-.5-.25-.25-.13-.5-.25-.75-.37-.16-.08-.32-.15-.49-.23-.25-.12-.5-.23-.74-.34-.15-.07-.3-.13-.45-.19-.24-.1-.48-.21-.71-.31-6.44-2.69-12.73-5.13-19.24-7.32-7.67-2.58-15.66-4.8-24.53-6.63-3.01-.62-6.12-1.2-9.36-1.73-6.3-1.03-19.4-4.19-35.71-9.82-2.87-.99-5.84-2.06-8.88-3.2-.48-.18-.97-.37-1.46-.56-1.15-.44-2.3-.88-3.47-1.33-.2-.08-.4-.16-.61-.24-1.41-.55-2.83-1.12-4.26-1.71-.5-.21-1.01-.42-1.51-.62-.52-.22-1.04-.43-1.56-.65-.46-.2-.93-.39-1.4-.59-.66-.28-1.33-.57-1.99-.86-.36-.16-.72-.31-1.08-.47-.88-.39-1.77-.78-2.66-1.18-.16-.07-.32-.14-.48-.22-3.41-1.53-6.86-3.16-10.33-4.87-.02-.01-.04-.02-.06-.03-1.15-.57-2.3-1.14-3.45-1.73-.02,0-.04-.02-.05-.03-18.73-9.54-37.81-21.67-53.86-36.69-.1-.09-.2-.19-.3-.28-.87-.82-1.73-1.64-2.57-2.47-.13-.13-.27-.26-.4-.4-.85-.84-1.69-1.69-2.52-2.54-.1-.1-.2-.2-.29-.3-1.88-1.95-3.7-3.93-5.46-5.97-.02-.02-.03-.04-.05-.06-.82-.94-1.62-1.89-2.4-2.85-.2-.25-.4-.5-.6-.75-.6-.74-1.2-1.49-1.78-2.25-.25-.32-.5-.65-.75-.97-.53-.7-1.05-1.4-1.57-2.11-.26-.35-.52-.7-.77-1.06-.51-.72-1.01-1.44-1.51-2.16-.23-.34-.47-.67-.7-1.02-.62-.92-1.22-1.84-1.81-2.78-.09-.14-.18-.27-.26-.4-5.43-8.65-9.46-19.34-12.66-29.88-2.77-9.13-4.92-18.14-6.78-25.59,2.02,1.82,4.21,3.55,6.55,5.21,9.85,7.03,22.42,12.79,36.58,18.38,7.1,2.8,14.58,5.56,22.34,8.42,1.87.69,3.71,1.35,5.52,1.99.19.07.38.13.57.2,2.96,1.04,5.86,2.02,8.7,2.96.05.02.1.03.15.05,17.98,5.88,34.21,9.84,55.02,14.92,4.71,1.15,9.67,2.36,14.91,3.66,2.53.63,5.1,1.27,7.77,1.94.32.08.63.17.95.25,1.27.33,2.53.66,3.77,1.01.54.15,1.09.3,1.62.46,1.3.37,2.59.76,3.85,1.15.28.09.56.17.84.26,1.47.47,2.92.96,4.35,1.46.51.18,1.01.36,1.51.54,1.05.38,2.09.77,3.13,1.17.46.18.92.35,1.37.52,1.26.5,2.49,1.01,3.71,1.54.68.29,1.34.59,2.01.89.65.29,1.3.59,1.95.89.68.32,1.37.63,2.04.96,1.15.56,2.28,1.13,3.4,1.72.56.29,1.09.59,1.64.88.66.36,1.3.72,1.95,1.09.78.44,1.57.89,2.33,1.35.92.55,1.84,1.11,2.74,1.68.08.05.16.1.23.15.38.24.76.49,1.13.74.73.47,1.44.96,2.15,1.45.59.4,1.17.8,1.75,1.22.5.36.99.73,1.49,1.09.4.3.82.59,1.21.9.07.04.14.09.21.14,1.53,1.16,3.02,2.37,4.49,3.6.41.35.81.71,1.22,1.07ZM915.21,963.7c-.42-.15-.85-.29-1.27-.44-1.03-.35-2.06-.71-3.12-1.07-.57-.19-1.16-.39-1.75-.58-.94-.31-1.88-.63-2.85-.94-.62-.2-1.26-.41-1.89-.61-.97-.31-1.95-.62-2.94-.94-.64-.2-1.28-.4-1.93-.61-1.05-.33-2.12-.66-3.2-.99-.61-.19-1.21-.37-1.82-.56-1.25-.38-2.52-.76-3.8-1.14-.47-.14-.93-.28-1.41-.42-3.66-1.08-7.46-2.18-11.41-3.29-.12-.03-.25-.07-.37-.1-1.85-.52-3.74-1.04-5.66-1.57-.35-.1-.7-.19-1.06-.29-1.72-.47-3.47-.95-5.25-1.43-.41-.11-.83-.22-1.25-.34-1.79-.48-3.61-.97-5.45-1.45-.37-.1-.73-.19-1.1-.29-2-.53-4.03-1.06-6.1-1.6-.22-.06-.44-.12-.67-.17-4.72-1.23-9.6-2.48-14.69-3.76-1.73-.44-3.43-.99-5.08-1.65-.04-.02-.08-.03-.12-.04-.67-.27-1.32-.57-1.98-.88-.17-.08-.35-.15-.52-.23-4.09-1.98-7.8-4.68-10.89-8.04-.76-.83-1.47-1.72-2.11-2.67,0,0,0,0,0,0-.28-.42-.55-.86-.81-1.3-.04-.06-.08-.12-.11-.18-.28-.48-.54-.98-.79-1.5-.01-.03-.03-.05-.04-.08-2.03-4.25-3.05-9.5-2.8-15.94.13-3.41.61-7.15,1.5-11.25.1-.47.24-.98.4-1.5.01-.04.03-.08.04-.12.14-.47.31-.95.5-1.45.04-.12.09-.23.14-.35.17-.44.35-.89.55-1.35.06-.15.12-.29.19-.44.2-.46.42-.94.65-1.42.07-.15.13-.29.2-.43.27-.57.56-1.14.87-1.73.03-.06.06-.13.1-.19.34-.66.7-1.33,1.08-2.01.1-.19.21-.38.32-.57.27-.48.54-.96.82-1.45.17-.3.36-.61.54-.92.22-.38.45-.76.68-1.15.21-.36.43-.72.65-1.08.2-.33.41-.66.61-1,.25-.41.5-.82.76-1.23.16-.25.32-.5.47-.75,8.81-13.9,21.1-29.72,26.16-36.09l71.02,123.01c-1.31-.47-2.64-.95-4-1.42ZM713.54,612.41c-19.49-2.01-33.01-2.48-52.95-2.49-9.07,0-19.46.09-32.35.18-8.39.06-15.82-2.09-22.36-5.36-8.79-4.4-15.95-10.83-21.61-16.75-.59-.62-1.24-1.45-1.93-2.46-4.6-6.72-11.28-21.87-18.82-42.5-2.1-5.74-4.26-11.91-6.46-18.44,4.1,2.64,9.28,5.37,15.73,7.88,8.04,3.14,18.07,5.96,30.55,7.88,1.19.18,2.41.36,3.65.54,2.48.36,5.09.7,7.84,1.04.8.1,1.59.2,2.42.3,11.83,1.41,24.39,2.51,37.73,3.69,4.9.43,9.86.87,14.84,1.32,4.53.42,9.07.85,13.61,1.31,4.75.48,9.5.99,14.18,1.55,22.23,2.65,39.82,5.93,54.62,10.19,2.38.69,4.69,1.4,6.94,2.13,19.74,6.51,38.56,15.64,55.3,26.59,20.25,13.24,37.45,29.14,49.55,46.26.16.23.34.46.5.69,2.59,3.72,4.93,7.38,7.05,10.97,2.89,4.89,5.37,9.66,7.49,14.24,10.58,22.9,12.24,41.32,12.36,49.57.02,1.28.02,2.62,0,3.99-.15,14.22-2.1,32.71-5.77,46.21-.75,2.75-1.55,5.31-2.44,7.56,0-.33-1.85-20.89-12.61-46.2,0-.02-.02-.04-.02-.06-.27-.64-.55-1.28-.83-1.92-.02-.05-.04-.1-.07-.15-.28-.62-.56-1.25-.84-1.88-.03-.07-.06-.14-.09-.21-.29-.63-.58-1.26-.88-1.89-.03-.07-.07-.15-.1-.22-.29-.61-.58-1.23-.88-1.84-.05-.09-.09-.19-.14-.28-.27-.55-.55-1.11-.83-1.66-.08-.16-.16-.32-.24-.48-.28-.54-.56-1.09-.84-1.64-.09-.17-.17-.34-.26-.51-.28-.53-.56-1.06-.85-1.6-.1-.19-.2-.38-.3-.56-.27-.5-.55-1-.83-1.5-.12-.22-.24-.45-.37-.67-.24-.42-.48-.84-.72-1.26-.18-.31-.35-.61-.53-.92-.22-.37-.44-.74-.66-1.12-.21-.35-.41-.7-.63-1.06-.21-.34-.42-.69-.63-1.03-.24-.38-.47-.77-.71-1.15-.16-.25-.32-.51-.48-.76-.3-.47-.6-.95-.91-1.42-.09-.14-.19-.28-.28-.42-.38-.59-.77-1.17-1.16-1.76-.02-.02-.03-.05-.05-.07-.47-.7-.95-1.4-1.43-2.1,0,0,0,0,0,0-6.54-9.4-14.52-18.65-24.25-27.09-.64-.56-10.1-9.51-26.31-19.94-20.52-13.21-51.87-28.8-89.91-32.72ZM554.75,511.67c-.12-.13-.22-.27-.33-.4-.97-1.23-1.35-2.81-1.07-4.32.09-.5.25-1,.49-1.47,14.53-28.57,74.28-68.32,121.22-123.75.24-.29.48-.58.73-.87,1.14-1.35,2.27-2.71,3.39-4.08,21.17-25.86,39.28-55.04,48.72-87.99.16,1.35.31,2.95.45,4.73.76,9.47,1.29,24.01,1.78,33.85.09,1.78.17,3.42.26,4.83.33,5.45.34,10.82.13,16.1-.86,21.93-5.88,42.08-11.52,57.93-1.56,4.38-3.16,8.43-4.74,12.1-9.62,22.42-19.32,39.74-29.01,54.25-16.94,25.37-33.85,42.16-50.3,62.48,0,0-46.71,4.19-74.84-18.49-1.87-1.51-3.66-3.14-5.35-4.9ZM684.22,190.07c-.06-.04-.11-.09-.17-.13-.24-.18-.49-.37-.73-.55-6.91-5.28-14.87-10.63-24.1-16.02-1.24-.73-2.45-1.42-3.63-2.1-18.75-10.81-30.33-16.34-39.55-20.31-3-1.3-5.76-2.43-8.43-3.53-2.75-1.13-5.37-2.21-8.04-3.38-6.84-3-14.06-6.63-24.93-13.41-2.48-1.55-5.14-3.25-8.04-5.16-6.52-4.29-12.02-9.23-16.6-14.75-13.43-16.17-18.96-37.37-18.86-62.22.64.84,1.35,1.8,2.11,2.8,7.09,9.35,19.56,25.01,37.06,36.84,15.6,10.54,31.2,19.45,45.48,26.8,10.31,5.3,19.93,9.79,28.39,13.48,11.59,5.06,20.99,8.64,26.9,10.77,4.51,1.61,54.74,27.62,64.8,57.07,12.55,36.67,21.53,64.24,5.42,147.92-.26,1.38-2.57,1.15-2.59-.27-.18-7.62-.44-14.47-.78-20.74-1.54-28.71-4.73-45.25-9.65-67.44-3.02-13.64-8.39-28.58-21.56-44.34-5.82-6.96-13.17-14.08-22.51-21.32ZM570.76,6.14c-.63.85-1.76,2.16-3.09,3.65-.59.66-1.21,1.35-1.85,2.05-3.14,3.46-6.66,7.26-7.76,8.81-.4.57-.78,1.12-1.16,1.67-6.68,9.71-9.92,16.96-11.28,25.44-.12.74-.21,1.43-.31,2.11l-.04.36-.03.22c-.06.49-.12.98-.17,1.43l-.04.4-.02.14c-.09.86-.16,1.7-.21,2.52-1.59-1.78-5.16-3.21-9.39-9.49-1.25-1.86-1.79-3.5-2-4.8-.28-1.75.04-2.86.07-2.93,4.38-17.1,16.75-27.23,36.9-32.09.11-.03.2,0,.28.05.15.1.23.29.1.47ZM796.39,752.39l7.18,12.42c-.86,1.18-1.73,2.36-2.6,3.55-.1.14-.2.28-.3.41-.77,1.04-1.54,2.09-2.32,3.13-.14.18-.27.36-.41.54-.81,1.08-1.61,2.16-2.43,3.24-.07.09-.14.19-.21.28-1.77,2.35-3.56,4.69-5.36,7.02-.21.28-.43.55-.64.83-.64.83-1.28,1.65-1.92,2.47-.31.39-.62.79-.92,1.18-.56.71-1.12,1.42-1.68,2.13-.33.42-.67.85-1,1.27-.62.78-1.25,1.56-1.87,2.33-.54.67-1.08,1.34-1.62,2-.5.62-1.01,1.24-1.51,1.85-.44.54-.89,1.08-1.33,1.62-.41.49-.81.98-1.22,1.47-.46.56-.93,1.11-1.39,1.67-.38.46-.77.91-1.15,1.36-.47.56-.95,1.12-1.42,1.67-.39.46-.78.91-1.17,1.36-.78.91-1.56,1.81-2.34,2.7-.44.5-.88,1.01-1.33,1.51-.41.46-.81.91-1.21,1.36-.46.51-.92,1.02-1.38,1.53-.37.41-.74.82-1.11,1.22-.53.58-1.07,1.16-1.6,1.73-.29.31-.58.62-.86.93-.83.89-1.66,1.77-2.49,2.62-.14.15-.31.31-.46.47-.17.17-.33.34-.51.53-.26.27-.53.54-.81.83l-49.01-90.17c29.8,3.52,59.52,10.55,88.4,20.94ZM887.99,1062.23c.94.31,1.88.61,2.81.91.71.23,1.41.45,2.12.67.9.28,1.79.56,2.68.83.81.25,1.62.49,2.42.72.8.24,1.61.48,2.41.71.84.24,1.67.47,2.51.7.72.2,1.44.41,2.15.6,0,0,.22.12.58.36,1.58,1.07,5.85,4.59,5.33,11.49-.02.21-.05.45-.08.68-.04.32-.06.64-.12.98-.05.32-.12.66-.18,1-.05.29-.1.58-.17.88-.08.36-.17.75-.26,1.13-.07.31-.14.61-.22.93-.1.39-.21.79-.32,1.18-.1.35-.19.69-.3,1.05-.11.37-.23.76-.35,1.14-.13.43-.27.85-.41,1.29-.1.32-.21.64-.32.96-.2.58-.4,1.17-.62,1.76-.06.17-.12.34-.19.51-.41,1.11-.85,2.23-1.3,3.37l-18.46-33.96c.09.03.19.06.28.09ZM1155.33,1479.13c-21.02-14.86-41.9-16.71-50.11-16.8l-133.59-245.79c6.88-8.8,14.53-19.2,21.68-30.11.12-.18.24-.37.36-.55.96-1.48,1.92-2.96,2.86-4.45.01-.02.02-.04.04-.06.91-1.44,1.8-2.88,2.68-4.33.13-.22.27-.43.4-.65.86-1.42,1.71-2.85,2.54-4.28.14-.25.28-.49.43-.74.79-1.38,1.57-2.76,2.33-4.13.06-.1.11-.2.17-.3.77-1.41,1.52-2.82,2.25-4.23.16-.31.33-.63.49-.94.71-1.38,1.4-2.76,2.06-4.13.11-.22.21-.44.32-.67.59-1.23,1.15-2.45,1.69-3.66.13-.29.26-.57.39-.86.58-1.31,1.12-2.62,1.64-3.91.14-.34.27-.68.4-1.01.49-1.25.96-2.48,1.39-3.71.03-.09.07-.18.1-.27.04-.1.08-.24.12-.37,0,0,0,0,0-.01.02-.07.04-.13.07-.21.05-.15.1-.31.16-.49,0,0,0,0,0-.01.42-1.36,1.04-3.55,1.68-6.47l173.8,301.05c.05.09,4.99,8.69,1.02,18.23-4.19,10.08-17.09,18.31-37.35,23.86ZM1279.73,1637.31c-21.76-37.24-49.38-81.43-74.63-115.31-3.43-4.61-13.36-17.52-14.13-18.51-5.34-7.74-10.41-13.45-15.37-17.31,15.13-6.52,25.02-15.25,29.42-25.96,6.46-15.72-1.56-29.38-1.88-29.9l-182.53-316.17c.08-1.77.12-3.61.12-5.5,0-.04,0-.08,0-.12,0-2.81-.07-5.76-.25-8.82,0-.12-.01-.23-.02-.35-.06-.92-.12-1.84-.2-2.78,0-.1-.02-.2-.02-.31-.17-2.08-.39-4.2-.67-6.37-.02-.12-.03-.24-.05-.36-.12-.94-.25-1.89-.4-2.85-.03-.19-.06-.39-.09-.58-.15-1-.32-2-.49-3.01-.01-.09-.03-.17-.04-.26-.39-2.23-.85-4.5-1.37-6.81-.05-.22-.1-.45-.15-.67-.22-.94-.44-1.9-.68-2.85-.06-.22-.11-.44-.17-.66-.6-2.34-1.26-4.7-2-7.1-.05-.18-.11-.36-.17-.54-.31-1.01-.64-2.02-.98-3.04-.09-.27-.18-.53-.27-.8-.35-1.02-.71-2.05-1.09-3.09-.07-.18-.13-.36-.2-.54-.9-2.45-1.89-4.93-2.96-7.43-.11-.26-.23-.52-.34-.78-.44-1.01-.89-2.02-1.35-3.03-.12-.27-.25-.54-.37-.81-.57-1.21-1.15-2.43-1.75-3.66-.01-.02-.02-.05-.03-.07-.65-1.3-1.32-2.61-2.01-3.92-.09-.17-.19-.35-.28-.52-.58-1.09-1.19-2.19-1.8-3.28-.17-.29-.33-.59-.5-.88-.61-1.06-1.23-2.13-1.87-3.2-.13-.22-.26-.45-.4-.67-1.57-2.6-3.25-5.21-5.03-7.83-.18-.26-.35-.51-.53-.77-.73-1.06-1.48-2.12-2.24-3.19-.21-.29-.41-.57-.62-.86-.88-1.21-1.78-2.42-2.71-3.64-.06-.08-.12-.16-.18-.24-1.04-1.35-2.11-2.7-3.2-4.06-.11-.13-.22-.26-.33-.4-.95-1.17-1.93-2.34-2.93-3.51-.25-.29-.49-.58-.74-.86-.94-1.08-1.89-2.17-2.87-3.26-.22-.24-.43-.48-.65-.72-1.21-1.33-2.43-2.66-3.7-3.98-.26-.27-.53-.54-.8-.81-.26-.27-.52-.53-.79-.8-.3-.3-.62-.6-.93-.89-.27-.26-.55-.52-.83-.78-.31-.29-.63-.58-.95-.87-.29-.26-.59-.53-.9-.79-.32-.28-.64-.55-.96-.83-.35-.29-.71-.59-1.07-.88-.43-.35-.87-.7-1.31-1.04-.48-.38-.97-.75-1.47-1.12-.32-.24-.65-.47-.98-.71-.39-.28-.78-.57-1.18-.85-.35-.24-.7-.49-1.05-.73-.4-.28-.81-.55-1.23-.82-.36-.24-.72-.47-1.08-.71-.45-.29-.91-.58-1.38-.87-.34-.21-.68-.43-1.03-.64-.76-.46-1.53-.92-2.32-1.37-.42-.24-.85-.48-1.28-.72-.44-.24-.87-.49-1.32-.73-.48-.26-.97-.52-1.46-.78-.4-.21-.81-.43-1.23-.64-.54-.28-1.07-.56-1.62-.83-.34-.17-.7-.35-1.05-.52-1.48-.73-2.99-1.46-4.58-2.19l-82.1-142.2c2.55-3.22,4.92-6.33,7.09-9.26.07-.09.13-.18.2-.27.66-.89,1.31-1.77,1.93-2.63.1-.14.2-.28.31-.43.5-.69.99-1.37,1.46-2.03.2-.28.4-.56.6-.84.4-.56.78-1.11,1.16-1.64.26-.37.51-.73.76-1.09.12-.17.23-.34.35-.5,5.55-7.99,8.96-13.58,9.83-15.04.1-.08.66-1.29,1.5-3.15,141.38,86.96,252.57,248.29,352.19,413.07,72.02,119.15,122.87,208.09,127.64,217.22,2.11,4.01,4.36,12.06,6.76,20.6,3.26,11.6,6.94,24.76,11.86,33.47,3.57,6.35,20.72,39.14,39.01,74.26-44.2,20.49-98.58,51.12-140.08,84.53Z"/>
</svg>