<?xml version="1.0" encoding="UTF-8"?>
<svg id="Layer_11" xmlns="http://www.w3.org/2000/svg" version="1.1" viewBox="0 0 2000 631.21">
  <!-- Generator: Adobe Illustrator 29.5.1, SVG Export Plug-In . SVG Version: 2.1.0 Build 141)  -->
  <defs>
    <style>
      .st0 {
        fill: #fff;
      }
    </style>
  </defs>
  <g>
    <path class="st0" d="M613,64.37c10.85,0,20.61,2.38,29.26,7.12,8.65,4.75,15.56,12.21,20.73,22.39,5.17,10.18,7.76,23.41,7.76,39.69s-2.59,29.47-7.76,39.56c-5.18,10.09-12.09,17.52-20.73,22.26-8.65,4.75-18.41,7.13-29.26,7.13s-20.4-2.38-29.13-7.13c-8.74-4.75-15.69-12.17-20.86-22.26-5.18-10.09-7.76-23.28-7.76-39.56s2.58-29.51,7.76-39.69c5.17-10.18,12.13-17.64,20.86-22.39,8.73-4.75,18.45-7.12,29.13-7.12ZM613,69.46c-9.67,0-17.6,5.01-23.79,15.01-6.2,10.01-9.29,26.38-9.29,49.11s3.09,39.05,9.29,48.98c6.19,9.92,14.12,14.89,23.79,14.89s17.6-4.96,23.79-14.89c6.19-9.92,9.29-26.25,9.29-48.98s-3.1-39.09-9.29-49.11c-6.19-10.01-14.12-15.01-23.79-15.01Z"/>
    <path class="st0" d="M775.58,0c4.75,0,9.24.34,13.48,1.02,4.24.68,8.14,1.57,11.7,2.67,3.56,1.11,6.53,2.42,8.91,3.94,2.71,1.7,4.83,3.69,6.36,5.98,1.53,2.29,2.29,4.96,2.29,8.01,0,4.58-1.62,8.48-4.84,11.7-3.22,3.22-7.04,4.83-11.45,4.83s-8.23-1.61-11.45-4.83c-3.22-3.22-4.83-7.04-4.83-11.45,0-3.05.76-5.85,2.29-8.4,1.53-2.54,3.56-4.49,6.11-5.85-2.21-1.36-5.01-2.33-8.4-2.93-3.39-.59-6.79-.89-10.18-.89-8.82,0-16.2,1.78-22.13,5.34-5.94,3.56-10.6,8.31-14,14.25-2.38,4.24-4.11,9.67-5.21,16.28-1.11,6.62-1.65,16.12-1.65,28.5h40.96c6.78,0,12.63-.08,17.55-.25,4.92-.17,9.33-.47,13.23-.89,3.9-.42,7.72-1.06,11.45-1.91v110.17c0,7.12,1.48,11.96,4.45,14.5,2.96,2.54,7.93,3.82,14.88,3.82v5.34c-2.89-.17-7.25-.38-13.1-.64-5.85-.25-11.75-.38-17.68-.38s-11.62.13-17.55.38c-5.94.25-10.35.47-13.23.64v-5.34c6.95,0,11.92-1.27,14.88-3.82,2.97-2.55,4.45-7.38,4.45-14.5v-79.64c0-7.63-1.36-13.27-4.07-16.92-2.71-3.64-7.8-5.47-15.27-5.47h-40.96v102.03c0,7.29,1.95,12.17,5.85,14.63,3.9,2.46,9.25,3.69,16.03,3.69v5.34c-3.4-.17-8.19-.38-14.38-.64-6.19-.25-12.51-.38-18.95-.38s-12.26.13-17.94.38c-5.69.25-9.97.47-12.85.64v-5.34c6.95,0,11.91-1.27,14.88-3.82,2.96-2.55,4.45-7.38,4.45-14.5v-102.03h-20.35v-5.09h20.35c0-10.85,1.4-20.61,4.2-29.26,2.8-8.65,7.51-16.11,14.12-22.39,4.92-4.58,11.28-8.48,19.08-11.7,7.8-3.22,17.3-4.83,28.5-4.83Z"/>
    <path class="st0" d="M955.02,166.99l-3.12-1.15-1.27-.47c-2.9,6.45-6.36,11.58-10.43,15.4-4.08,3.82-8.4,6.57-12.98,8.27-4.57,1.7-9.06,2.55-13.46,2.55h-.02c-1.29,0-2.57-.07-3.83-.23-5.14-.6-9.93-2.44-14.37-5.5-5.51-3.82-9.97-10.13-13.35-18.95-3.4-8.82-5.08-20.7-5.08-35.63,0-12.04,1.09-22.08,3.3-30.15,2.2-8.05,5.08-14.42,8.65-19.08,3.57-4.67,7.47-8.02,11.7-10.05,4.25-2.03,8.48-3.05,12.73-3.05,4.92,0,9.53,1.02,13.87,3.05,4.32,2.03,7.33,4.58,9.03,7.63-2.9.68-5.38,2.2-7.51,4.58-2.12,2.37-3.17,5.52-3.17,9.42s1.4,7.2,4.19,9.42c2.8,2.2,6.07,3.3,9.8,3.3s7.13-1.23,9.67-3.68c2.55-2.46,3.82-5.98,3.82-10.56,0-3.9-1.02-7.5-3.05-10.82-2.03-3.3-5-6.23-8.9-8.78-4.07-2.7-8.65-4.74-13.75-6.1-5.08-1.35-10.35-2.03-15.77-2.03-11.53,0-21.8,3.01-30.79,9.03-8.98,6.02-15.98,14.33-20.98,24.93-5,10.6-7.5,22.86-7.5,36.76s2.5,25.91,7.5,36.01c5,10.09,11.74,17.85,20.23,23.27,8.37,5.37,17.74,8.09,28.13,8.14.12.01.25.01.37.01,1.2,0,2.37-.04,3.52-.1,7.63-.39,14.18-2.15,19.63-5.25,6.27-3.55,11.37-8.1,15.27-13.6,1.58-2.24,2.98-4.46,4.2-6.69,1.61-2.93,2.91-5.85,3.89-8.77.11-.32.22-.63.31-.96l-.44-.17Z"/>
    <path class="st0" d="M1013.98,65.13v110.17c0,7.12,1.48,11.96,4.45,14.5,2.97,2.54,7.93,3.82,14.88,3.82v5.34c-2.89-.17-7.25-.38-13.1-.64-5.85-.25-11.75-.38-17.68-.38s-11.62.13-17.55.38c-5.94.25-10.35.47-13.23.64v-5.34c6.95,0,11.91-1.27,14.88-3.82,2.96-2.55,4.45-7.38,4.45-14.5v-79.64c0-7.63-1.36-13.27-4.07-16.92-2.72-3.64-7.8-5.47-15.27-5.47v-5.34c5.43.51,10.68.76,15.77.76s9.62-.29,14.12-.89c4.49-.59,8.61-1.48,12.34-2.67ZM1000.75,4.33c4.41,0,8.22,1.61,11.45,4.83,3.22,3.22,4.83,7.04,4.83,11.45s-1.61,8.23-4.83,11.45c-3.22,3.22-7.04,4.83-11.45,4.83s-8.23-1.61-11.45-4.83c-3.22-3.22-4.83-7.04-4.83-11.45s1.61-8.22,4.83-11.45c3.22-3.22,7.04-4.83,11.45-4.83Z"/>
    <path class="st0" d="M1131.78,64.37c6.44,0,11.83.85,16.16,2.54,4.33,1.7,7.93,4.07,10.81,7.13,3.22,3.39,5.51,7.63,6.87,12.72,1.36,5.09,2.03,11.96,2.03,20.61v67.93c0,7.12,1.48,11.96,4.45,14.5,2.97,2.54,7.93,3.82,14.89,3.82v5.34c-2.89-.17-7.3-.38-13.23-.64-5.94-.25-11.7-.38-17.3-.38s-11.07.13-16.41.38c-5.34.25-9.38.47-12.09.64v-5.34c6.1,0,10.43-1.27,12.98-3.82,2.54-2.55,3.82-7.38,3.82-14.5v-73.53c0-5.26-.42-10.09-1.27-14.5-.85-4.41-2.76-7.97-5.72-10.69-2.97-2.71-7.51-4.07-13.61-4.07-7.13,0-13.36,2.04-18.7,6.11-5.34,4.07-9.5,9.63-12.47,16.67-2.97,7.04-4.45,14.88-4.45,23.54v56.48c0,7.12,1.27,11.96,3.82,14.5,2.54,2.54,6.87,3.82,12.98,3.82v5.34c-2.72-.17-6.74-.38-12.09-.64-5.34-.25-10.81-.38-16.41-.38s-11.36.13-17.3.38c-5.94.25-10.35.47-13.23.64v-5.34c6.95,0,11.91-1.27,14.88-3.82,2.96-2.55,4.45-7.38,4.45-14.5v-79.64c0-7.63-1.36-13.27-4.07-16.92-2.72-3.64-7.8-5.47-15.27-5.47v-5.34c5.43.51,10.68.76,15.77.76s9.62-.29,14.12-.89c4.49-.59,8.61-1.48,12.34-2.67v30.02c4.41-11.53,10.56-19.55,18.44-24.04,7.89-4.49,16.16-6.74,24.81-6.74Z"/>
    <path class="st0" d="M1234.31,200.74c-6.96,0-12.98-1.32-18.06-3.94-5.09-2.63-8.95-6.32-11.58-11.07-2.63-4.75-3.94-10.26-3.94-16.54,0-7.46,1.74-13.57,5.21-18.32,3.48-4.75,7.93-8.56,13.36-11.45,5.43-2.88,11.15-5.3,17.18-7.25,6.02-1.95,11.74-3.82,17.17-5.6,5.43-1.78,9.88-3.86,13.36-6.23,3.47-2.37,5.21-5.51,5.21-9.41v-15.77c0-7.12-1.06-12.55-3.18-16.28-2.12-3.73-4.96-6.23-8.52-7.51-3.56-1.27-7.55-1.91-11.96-1.91s-8.78.6-13.61,1.78c-4.83,1.19-8.69,3.65-11.57,7.38,3.22.68,6.02,2.38,8.39,5.09,2.37,2.71,3.56,6.19,3.56,10.43s-1.36,7.59-4.07,10.05c-2.72,2.46-6.19,3.69-10.43,3.69-4.92,0-8.52-1.57-10.81-4.71-2.29-3.14-3.43-6.65-3.43-10.56,0-4.41,1.1-7.97,3.31-10.69,2.2-2.71,5-5.26,8.4-7.63,3.9-2.71,8.95-5.05,15.14-7,6.19-1.95,13.19-2.93,20.99-2.93,6.95,0,12.89.81,17.81,2.42,4.92,1.62,8.99,3.94,12.21,7,4.41,4.07,7.29,9.03,8.65,14.89,1.36,5.85,2.03,12.85,2.03,20.99v70.73c0,4.24.64,7.29,1.91,9.16,1.27,1.87,3.26,2.8,5.98,2.8,1.86,0,3.65-.42,5.34-1.27,1.69-.85,3.73-2.2,6.11-4.07l2.8,4.33c-3.56,2.71-6.96,4.96-10.18,6.74-3.22,1.78-7.55,2.67-12.98,2.67-4.92,0-8.99-.85-12.21-2.54-3.22-1.69-5.64-4.2-7.25-7.51-1.62-3.31-2.42-7.51-2.42-12.59-4.58,7.63-10.05,13.32-16.41,17.05-6.36,3.73-13.53,5.6-21.5,5.6ZM1243.47,190.57c5.6,0,10.81-1.61,15.65-4.83,4.84-3.22,9.2-8.05,13.1-14.5v-49.87c-2.03,2.89-5.01,5.3-8.9,7.25-3.91,1.95-8.14,3.9-12.72,5.85-4.58,1.95-8.95,4.24-13.1,6.87-4.16,2.63-7.59,6.07-10.3,10.3-2.72,4.24-4.07,9.76-4.07,16.54s1.82,12.21,5.47,16.28c3.65,4.07,8.61,6.11,14.88,6.11Z"/>
  </g>
  <path class="st0" d="M115.57,296.21c12.1,0,23.2,1.33,33.29,3.96,10.09,2.64,18.43,5.99,24.95,10.01,8.08,4.99,14.37,11.11,18.84,18.41,4.51,7.3,6.79,15.77,6.79,25.4,0,10.86-3.45,19.79-10.28,26.79-6.82,6.98-15.66,10.48-26.54,10.48s-19.56-3.11-26.09-9.33c-6.52-6.2-9.78-14.6-9.78-25.16,0-9.93,3.07-18.24,9.29-24.93,6.22-6.67,13.38-11.09,21.46-13.27-2.5-3.11-6.22-5.74-11.19-7.92-4.97-2.16-10.58-3.26-16.8-3.26-9.63,0-18.09,2.79-25.37,8.38-7.32,5.59-13.46,13.37-18.43,23.3-4.97,9.95-8.76,21.59-11.41,34.94-2.62,13.37-3.94,27.96-3.94,43.79,0,23.93,3.03,42.71,9.06,56.38,6.07,13.67,13.84,23.3,23.32,28.89,9.48,5.59,19.34,8.38,29.57,8.38,5.91,0,12.36-.93,19.34-2.79,6.98-1.88,14.14-5.59,21.42-11.19,7.32-5.59,14.07-13.52,20.29-23.75l7.92,2.79c-3.41,11.49-9.02,23-16.8,34.49-7.73,11.49-17.86,20.89-30.26,28.19-12.44,7.28-27.68,10.94-45.69,10.94-20.17,0-38.41-4.42-54.71-13.27-16.3-8.85-29.39-22.52-39.17-41.01-9.78-18.48-14.67-42.31-14.67-71.51s5.04-51.49,15.17-70.6c10.09-19.09,23.81-33.46,41.22-43.09,17.4-9.63,37.12-14.45,59.19-14.45Z"/>
  <path class="st0" d="M322.44,297.62v202.66c0,13.06,2.24,21.92,6.75,26.56,4.51,4.66,12.17,7,23.05,7v9.78c-5.57-.3-14.29-.7-26.09-1.16-11.79-.47-23.77-.7-35.87-.7s-24.38.23-36.82.7c-12.44.45-21.73.85-27.94,1.16v-9.78c10.88,0,18.54-2.33,23.05-7,4.51-4.64,6.75-13.5,6.75-26.56v-146.76c0-13.97-2.09-24.3-6.29-30.98-4.17-6.67-12.02-10.03-23.51-10.03v-9.78c9.93.93,19.56,1.4,28.89,1.4,13.04,0,25.21-.53,36.55-1.63,11.34-1.08,21.84-2.71,31.47-4.89ZM286.08,182.54c13.04,0,23.39,3.18,31.02,9.54,7.58,6.37,11.41,15.15,11.41,26.33s-3.83,19.96-11.41,26.31c-7.62,6.37-17.97,9.55-31.02,9.55s-23.36-3.18-30.98-9.55c-7.62-6.35-11.41-15.13-11.41-26.31s3.79-19.96,11.41-26.33c7.62-6.35,17.93-9.54,30.98-9.54Z"/>
  <path class="st0" d="M462.66,631.21c-19.26,0-36.44-1.63-51.49-4.89-15.05-3.26-26.88-8.23-35.41-14.9-8.53-6.69-12.82-14.84-12.82-24.46s4.36-18.26,13.04-25.86c8.68-7.62,21.57-13.59,38.67-17.95l4.21,7.47c-5.91,4.64-10.2,9.71-12.82,15.13-2.65,5.44-3.98,11.11-3.98,17.01,0,13.06,5.99,23.07,17.93,30.07,11.98,6.98,28.21,10.46,48.72,10.46,13.95,0,26.47-1.86,37.5-5.57,11-3.73,19.72-9.33,26.09-16.78,6.37-7.45,9.55-16.63,9.55-27.49,0-9.33-3.41-17.18-10.28-23.53-6.82-6.37-20.47-9.55-40.99-9.55h-28.89c-12.74,0-23.85-1.4-33.29-4.19-9.48-2.81-16.87-7.22-22.14-13.29-5.27-6.05-7.92-13.74-7.92-23.05,0-13.04,5.12-24.53,15.39-34.49,10.24-9.93,25.44-19.24,45.65-27.94l4.66,3.72c-5.91,3.73-11.41,7.7-16.57,11.89-5.12,4.19-7.66,9.55-7.66,16.08,0,9.93,6.18,14.9,18.62,14.9h50.81c17.06,0,32.38,2.03,45.88,6.07,13.5,4.04,24.23,10.64,32.15,19.79,7.92,9.18,11.87,21.04,11.87,35.64s-4.89,29.37-14.67,42.41c-9.78,13.04-24.76,23.53-44.97,31.45-20.17,7.91-45.8,11.87-76.86,11.87ZM467.32,444.37c-17.71,0-33.56-2.64-47.55-7.91-13.95-5.29-24.99-13.37-33.06-24.23-8.08-10.88-12.13-24.85-12.13-41.94s4.06-31.15,12.13-42.16c8.08-11.03,19.11-19.11,33.06-24.23,13.99-5.14,29.84-7.7,47.55-7.7s33.52,2.56,47.51,7.7c13.99,5.12,24.99,13.19,33.06,24.23,8.08,11.01,12.13,25.08,12.13,42.16s-4.06,31.05-12.13,41.94c-8.08,10.86-19.07,18.94-33.06,24.23-13.99,5.27-29.8,7.91-47.51,7.91ZM467.32,435.99c8.38,0,14.9-4.74,19.56-14.22,4.66-9.46,6.98-26.62,6.98-51.47s-2.31-42.01-6.98-51.49c-4.66-9.48-11.19-14.2-19.56-14.2s-14.52,4.72-19.34,14.2-7.24,26.64-7.24,51.49,2.43,42.01,7.24,51.47c4.82,9.48,11.26,14.22,19.34,14.22ZM540.01,336.29l-9.33-3.26c4.66-12.11,12.17-22.22,22.6-30.3,10.39-8.08,21.65-12.11,33.78-12.11,9.93,0,17.44,2.73,22.6,8.15,5.12,5.44,7.66,12.51,7.66,21.21,0,9.31-2.46,16.23-7.43,20.72-4.97,4.51-10.58,6.77-16.8,6.77-5.27,0-10.16-1.88-14.67-5.59-4.47-3.73-7.05-9.4-7.66-17.01-.64-7.62,2.01-17.48,7.89-29.59l3.3,2.79c-11.83,4.36-20.66,9.4-26.58,15.15-5.91,5.76-11.03,13.44-15.36,23.07Z"/>
  <path class="st0" d="M689.59,546.88c-13.99,0-25.63-2.64-34.96-7.92-9.33-5.27-16.15-12.34-20.51-21.2-4.32-8.85-6.52-18.56-6.52-29.12,0-13.35,3.03-24.23,9.1-32.61,6.07-8.4,13.88-15.22,23.55-20.51,9.59-5.27,19.79-9.61,30.48-13.04,10.73-3.41,20.97-6.75,30.75-10.01,9.78-3.26,17.71-7.15,23.77-11.66,6.07-4.49,9.1-10.31,9.1-17.46v-36.34c0-8.08-1.33-15.3-3.98-21.67-2.62-6.35-6.67-11.26-12.1-14.67-5.46-3.41-12.51-5.12-21.2-5.12-6.22,0-12.44.85-18.65,2.56s-11.34,4.59-15.36,8.61c8.68,3.11,15.43,7.85,20.25,14.22,4.82,6.37,7.24,13.59,7.24,21.67,0,10.56-3.68,18.94-10.96,25.16-7.32,6.22-15.92,9.31-25.86,9.31-11.19,0-19.64-3.49-25.4-10.46-5.76-7-8.61-15.45-8.61-25.4,0-9.01,2.24-16.46,6.75-22.37,4.51-5.9,10.81-11.47,18.88-16.76,8.68-4.97,19.15-8.85,31.43-11.66,12.28-2.79,25.56-4.19,39.85-4.19s27.15,1.48,38.67,4.44c11.49,2.96,21.12,8.3,28.89,16.06,7.13,7.17,11.79,15.92,13.95,26.33,2.16,10.41,3.26,23.53,3.26,39.38v126.72c0,7.77.8,13.14,2.35,16.08,1.52,2.96,4.17,4.44,7.89,4.44,2.81,0,5.54-.78,8.19-2.33,2.62-1.55,5.5-3.41,8.61-5.59l4.66,7.92c-6.52,5.59-14.07,9.86-22.6,12.82-8.57,2.94-18.12,4.42-28.66,4.42-11.49,0-20.66-1.63-27.49-4.89-6.82-3.26-11.72-7.7-14.67-13.27-2.96-5.59-4.44-12.11-4.44-19.58-7.43,11.81-16.46,21.06-27,27.74-10.58,6.67-23.47,10.01-38.67,10.01ZM722.65,517.06c6.22,0,11.87-1.46,17.02-4.42,5.12-2.96,10.01-7.85,14.67-14.67v-95.53c-2.81,4.66-6.71,8.85-11.68,12.59-4.97,3.73-10.24,7.53-15.81,11.41-5.61,3.89-10.96,8.15-16.08,12.82-5.12,4.66-9.25,10.41-12.36,17.23-3.11,6.84-4.66,15.07-4.66,24.7,0,12.11,2.65,21.12,7.92,27.02,5.27,5.91,12.28,8.85,20.97,8.85Z"/>
  <path class="st0" d="M1026.9,296.21c9.93,0,18.01,2.1,24.23,6.29,6.22,4.19,10.81,9.55,13.73,16.08,2.96,6.52,4.44,13.35,4.44,20.49,0,11.49-3.34,20.89-10.01,28.19-6.67,7.3-15.47,10.96-26.31,10.96s-19.34-2.73-25.4-8.17c-6.07-5.42-9.1-12.65-9.1-21.65s1.93-15.92,5.84-21.67c3.87-5.74,8.76-10.64,14.67-14.67-4.36-1.25-8.68-1.08-13.04.45-5.91.93-11.49,3.36-16.76,7.22-5.31,3.89-9.78,8.7-13.54,14.45-3.72,5.74-6.67,11.96-8.83,18.64-2.2,6.69-3.26,13.12-3.26,19.34v123.48c0,14.9,3.64,25.01,10.96,30.28,7.28,5.29,18.24,7.92,32.84,7.92v9.78c-7.17-.3-17.56-.7-31.21-1.16-13.69-.47-27.98-.7-42.88-.7-12.44,0-24.99.23-37.73.7-12.74.45-22.37.85-28.89,1.16v-9.78c10.88,0,18.54-2.33,23.05-7,4.51-4.64,6.75-13.5,6.75-26.56v-146.76c0-13.97-2.09-24.3-6.29-30.98-4.17-6.67-12.02-10.03-23.51-10.03v-9.78c9.93.93,19.56,1.4,28.89,1.4,13.04,0,25.21-.53,36.55-1.63,11.34-1.08,21.84-2.71,31.47-4.89v43.32c3.72-8.38,8.68-15.98,14.9-22.83,6.22-6.82,13.35-12.19,21.42-16.08,8.08-3.87,17.1-5.82,27.03-5.82Z"/>
  <path class="st0" d="M1244.46,296.21c9.93,0,18.01,2.1,24.23,6.29,6.22,4.19,10.81,9.55,13.73,16.08,2.96,6.52,4.44,13.35,4.44,20.49,0,11.49-3.34,20.89-10.01,28.19-6.67,7.3-15.47,10.96-26.31,10.96s-19.34-2.73-25.4-8.17c-6.07-5.42-9.1-12.65-9.1-21.65s1.93-15.92,5.84-21.67c3.87-5.74,8.76-10.64,14.67-14.67-4.36-1.25-8.68-1.08-13.04.45-5.91.93-11.49,3.36-16.76,7.22-5.31,3.89-9.78,8.7-13.54,14.45-3.72,5.74-6.67,11.96-8.83,18.64-2.2,6.69-3.26,13.12-3.26,19.34v123.48c0,14.9,3.64,25.01,10.96,30.28,7.28,5.29,18.24,7.92,32.84,7.92v9.78c-7.17-.3-17.56-.7-31.21-1.16-13.69-.47-27.98-.7-42.88-.7-12.44,0-24.99.23-37.73.7-12.74.45-22.37.85-28.89,1.16v-9.78c10.88,0,18.54-2.33,23.05-7,4.51-4.64,6.75-13.5,6.75-26.56v-146.76c0-13.97-2.09-24.3-6.29-30.98-4.17-6.67-12.02-10.03-23.51-10.03v-9.78c9.93.93,19.56,1.4,28.89,1.4,13.04,0,25.21-.53,36.55-1.63,11.34-1.08,21.84-2.71,31.47-4.89v43.32c3.72-8.38,8.68-15.98,14.9-22.83,6.22-6.82,13.35-12.19,21.42-16.08,8.08-3.87,17.1-5.82,27.03-5.82Z"/>
  <path class="st0" d="M1999.87,87.84c-.08-.23-.19-.45-.32-.66-1.32-2.04-6.08-8.98-13.13-12.06-8.01-3.48-14.63-3.44-14.91-3.44-.23,0-.42.06-.62.15-.04.02-.09.04-.13.04-5.65,2.21-34.12,14.38-38.24,39.06-2.23,13.44-1.51,39.38-3.33,55.84-3.53,31.65-13.66,44.01-25.72,50.21-26.4,13.53-58.75.83-61.28.19-17.71-4.33-35.47-12.28-35.47-12.28-11.98-4.65-17.1-8.13-26.93-11.83-1.7-.64-3.93-1.64-6.52-2.8l-1.87-.83c-10.53-4.69-22.26-9.35-27.93-5.08-.08.04-.15.09-.19.13-6.75,5.99-28.99,26.15-32.3,34.2-3.21,7.84-5.06,13.83-1.55,25.23.7,2.25,1.57,4.63,2.68,7.31,2.04,4.86,10.09,19.86,15.59,37.72,3.25,10.49,9.73,37.38-2.65,66.25-1.13,2.61-11.51,17.37-27.1,14.72-16.69-2.82-41.08-7.96-57.81-14.04-.53-.19-1.15-.42-1.85-.7-7.92-3-25.57-9.83-40.06-1.17-.15.09-17.05,10.33-35.28,30.5-22.85,25.28-3.03,79.66-3.03,100.32,0,34.57-37.11,47.61-51.74,32.29-6.75-7.07-10.26-17.43-10.26-73.01v-61.67c0-15.87-1.08-28.97-3.25-39.38-2.17-10.41-6.82-19.18-13.95-26.34-7.77-7.75-17.39-13.1-28.89-16.06-11.53-2.95-24.43-4.44-38.68-4.44s-27.57,1.4-39.87,4.18c-12.28,2.8-22.75,6.69-31.41,11.66-8.09,5.29-14.38,10.87-18.9,16.76-4.5,5.93-6.73,13.36-6.73,22.36,0,9.96,2.85,18.41,8.6,25.42,5.76,6.97,14.21,10.45,25.4,10.45,9.94,0,18.54-3.08,25.87-9.3,7.26-6.22,10.96-14.59,10.96-25.17,0-8.07-2.44-15.29-7.24-21.66-4.82-6.37-11.58-11.11-20.26-14.21,4.01-4.01,9.13-6.9,15.36-8.6,6.22-1.72,12.45-2.57,18.67-2.57,8.67,0,15.72,1.7,21.2,5.12,5.42,3.42,9.47,8.33,12.09,14.68,2.65,6.37,3.97,13.59,3.97,21.66v36.34c0,7.16-3.02,12.98-9.09,17.46-6.07,4.52-14,8.41-23.77,11.66-9.79,3.27-20.03,6.61-30.75,10.02-10.7,3.42-20.9,7.77-30.48,13.04-9.69,5.29-17.48,12.11-23.55,20.52-6.07,8.37-9.11,19.24-9.11,32.6,0,10.56,2.21,20.26,6.54,29.12,4.35,8.86,11.17,15.93,20.5,21.2,9.32,5.29,20.98,7.92,34.96,7.92,15.21,0,28.1-3.33,38.68-10,10.53-6.69,19.56-15.93,26.99-27.74,0,7.45,1.49,14,4.44,19.58,2.55,4.8,6.54,8.75,11.96,11.85.21.11.42.23.68.36.66.38,1.34.72,2.04,1.06.85.4,1.74.79,2.65,1.15.04.02.09.04.13.04,16.99,7.52,33.93,8.17,53.29,8.2,3.91,0,97.14,4.4,97.14-70,0-14.88,1.36-16.67-6.37-61.47-.66-3.84-.3-7.84,1.27-11.41,1.91-4.44,5.97-9.24,14.4-11,8.24-1.7,36.6,5.97,36.6,5.97,14.12,4.06,25.3,5.52,27.04,5.73.25.11,11.81,1.27,15.19,1.04,8.94-.62,22.81-4.76,31.86-8.94,5.8-2.68,18.92-10.75,31.12-30.88,11.15-18.41,17.95-45.03,15.4-70.6-.93-9.39-3.33-20.07-7.52-33.64-2.25-7.28-4.78-14.7-7.24-21.85l-.04-.17c-.68-1.93-1.34-3.87-1.98-5.76.57,0,1.53.11,3.1.53,9.75,2.63,39.87,12.3,65.27,12.11,2.34-.02,4.76-.26,7.35-.36.81-.04,1.61-.06,2.51-.11,5.95-.25,12.42-.68,19.37-2.02h2.44c21.22-.28,41.2-7.39,44.86-8.86,16.84-6.75,27.38-9.01,44.56-28.55,12.34-14.04,14.87-33.43,13.95-45.94-.66-9.01-3.23-50.46,7.2-72.7.04-.04,1.21-1.51,7.48-3.21,4.01-1.08,8.18-1.15,14.34-.3,4.46.62,8.77,1.72,10.41,2.17.85.23,1.7.09,2.36-.4.91-.7,1.2-1.85.88-2.93ZM1430.85,497.97c-4.65,6.82-9.54,11.72-14.65,14.68-5.16,2.95-10.81,4.42-17.03,4.42-8.69,0-15.7-2.93-20.96-8.86-5.27-5.9-7.92-14.91-7.92-27.02,0-9.62,1.55-17.86,4.65-24.7,3.12-6.82,7.24-12.57,12.36-17.23,5.12-4.67,10.47-8.94,16.08-12.83,5.59-3.89,10.85-7.67,15.82-11.41,4.95-3.74,8.86-7.92,11.66-12.59v95.53ZM1595.02,496.31c-6.98,32.18-57.64,60.31-92.33,27.56,14.69,15.04,64.07,4.71,64.07-31.99,0-50.74-18.98-70,3.05-102.69,5.67-8.45,15.89-16.08,22.85-21.52-19.96,29.68,12.63,81.33,2.36,128.63ZM1756.35,267.61c4.08,13.25,6.41,23.64,7.31,32.69,2.46,24.6-2.42,49.76-13.06,67.33-11.49,18.99-25.27,26.83-30.65,29.31-8.39,3.87-19.58,6.03-27.84,6.39.17-.09,33.24-13.93,43.14-46.34.32-1,11.85-33.39.53-68.11-4.72-14.46-8.26-22.07-17.35-42.12-4.33-9.58-1.64-19.2,1.27-26.25,1.66-4.04,6.88-9.98,20.77-22.75-.89,5.78-2.95,10.02.21,21.75.62,2.23,1.3,4.59,2.1,7.2,1.87,6.05,4.06,12.42,6.37,19.2,2.44,7.12,4.97,14.46,7.2,21.71ZM1954.18,105.44c-4.78,26.83-3.42,31.89-3.08,60.23.03,2.56,3.26,22.6-13.81,43.97-12.92,16.17-24.55,22.3-68.88,32.56-.72.17-1.1-1-.42-1.32,20.52-9.71,33.11-13.3,45.01-22.07,10.66-7.88,19.63-20.24,23.11-51.53,1.87-16.8,1.15-42.61,3.31-55.56,2.68-16.16,10.18-24.7,26.47-31.86-2.82,5.1-9.52,13.27-11.71,25.57Z"/>
</svg>